<?xml version="1.0" encoding="UTF-8" standalone="no"?>
<svg
   data-name="Layer 1"
   width="842"
   height="678.37637"
   viewBox="0 0 842 678.37637"
   version="1.1"
   id="svg124"
   sodipodi:docname="undraw_business_shop_qw-5-t.svg"
   inkscape:version="1.1.1 (3bf5ae0d25, 2021-09-20)"
   xmlns:inkscape="http://www.inkscape.org/namespaces/inkscape"
   xmlns:sodipodi="http://sodipodi.sourceforge.net/DTD/sodipodi-0.dtd"
   xmlns="http://www.w3.org/2000/svg"
   xmlns:svg="http://www.w3.org/2000/svg"
   xmlns:rdf="http://www.w3.org/1999/02/22-rdf-syntax-ns#"
   xmlns:cc="http://creativecommons.org/ns#"
   xmlns:dc="http://purl.org/dc/elements/1.1/">
  <defs
     id="defs128">
    <inkscape:path-effect
       fuse_tolerance="0"
       hide_knot="false"
       vertical_pattern="false"
       prop_units="false"
       tang_offset="0"
       normal_offset="0"
       spacing="0"
       scale_y_rel="false"
       prop_scale="-0.315379"
       copytype="single_stretched"
       pattern="M 0,5 C 0,2.24 2.24,0 5,0 7.76,0 10,2.24 10,5 10,7.76 7.76,10 5,10 2.24,10 0,7.76 0,5 Z"
       lpeversion="1"
       is_visible="true"
       id="path-effect1526"
       effect="skeletal" />
    <inkscape:path-effect
       effect="bend_path"
       id="path-effect1733"
       is_visible="true"
       lpeversion="1"
       bendpath="M -96.005575,588.18864 H -125.40084"
       prop_scale="1.94363"
       scale_y_rel="false"
       vertical="false"
       hide_knot="false" />
    <inkscape:path-effect
       effect="skeletal"
       id="path-effect1211"
       is_visible="true"
       lpeversion="1"
       pattern="M 0,5 C 0,2.24 2.24,0 5,0 7.76,0 10,2.24 10,5 10,7.76 7.76,10 5,10 2.24,10 0,7.76 0,5 Z"
       copytype="single_stretched"
       prop_scale="-0.315379"
       scale_y_rel="false"
       spacing="0"
       normal_offset="0"
       tang_offset="0"
       prop_units="false"
       vertical_pattern="false"
       hide_knot="false"
       fuse_tolerance="0" />
    <inkscape:path-effect
       fuse_tolerance="0"
       hide_knot="false"
       vertical_pattern="false"
       prop_units="false"
       tang_offset="0"
       normal_offset="0"
       spacing="0"
       scale_y_rel="false"
       prop_scale="-0.315379"
       copytype="single_stretched"
       pattern="M 0,5 C 0,2.24 2.24,0 5,0 7.76,0 10,2.24 10,5 10,7.76 7.76,10 5,10 2.24,10 0,7.76 0,5 Z"
       lpeversion="1"
       is_visible="true"
       id="path-effect1492"
       effect="skeletal" />
    <rect
       x="103.56694"
       y="204.72845"
       width="55.324791"
       height="37.150463"
       id="rect1064" />
    <rect
       id="rect945"
       height="17.63979"
       width="56.92841"
       y="23.519718"
       x="113.45591" />
    <clipPath
       id="clipPath1095"
       clipPathUnits="userSpaceOnUse">
      <rect
         ry="20.457716"
         rx="20.457716"
         y="165.36458"
         x="-298.97916"
         height="48.021873"
         width="53.842709"
         id="rect1097"
         style="fill:#ff0000;fill-opacity:1;stroke:#e3dbdb;stroke-width:1.5;stroke-linecap:round;stroke-miterlimit:4;stroke-dasharray:none;stroke-opacity:1;paint-order:stroke fill markers;stop-color:#000000" />
    </clipPath>
    <clipPath
       id="clipPath1530"
       clipPathUnits="userSpaceOnUse">
      <rect
         ry="20.457716"
         rx="20.457716"
         y="-661.54553"
         x="-34.424316"
         height="135.45219"
         width="430.30392"
         id="rect1532"
         style="fill:#583d3e;fill-opacity:1;stroke:none;stroke-width:0.499999;stroke-linecap:round;stroke-linejoin:round;stroke-miterlimit:4;stroke-dasharray:none;stroke-opacity:1;paint-order:stroke fill markers;stop-color:#000000" />
    </clipPath>
    <clipPath
       id="clipPath1567"
       clipPathUnits="userSpaceOnUse">
      <rect
         ry="20.457716"
         rx="20.457716"
         y="-922.86664"
         x="-134.40833"
         height="129.64583"
         width="450.32083"
         id="rect1569"
         style="fill:#ff2a2a;fill-opacity:1;stroke:none;stroke-width:0.499999;stroke-linecap:round;stroke-linejoin:round;stroke-miterlimit:4;stroke-dasharray:none;stroke-opacity:1;paint-order:stroke fill markers;stop-color:#000000" />
    </clipPath>
  </defs>
  <sodipodi:namedview
     id="namedview126"
     pagecolor="#505050"
     bordercolor="#ffffff"
     borderopacity="1"
     inkscape:pageshadow="0"
     inkscape:pageopacity="0"
     inkscape:pagecheckerboard="1"
     showgrid="false"
     inkscape:zoom="1.6969487"
     inkscape:cx="517.69391"
     inkscape:cy="421.3445"
     inkscape:window-width="3440"
     inkscape:window-height="1411"
     inkscape:window-x="-9"
     inkscape:window-y="-9"
     inkscape:window-maximized="1"
     inkscape:current-layer="svg124" />
  <title
     id="title2">business_shop</title>
  <ellipse
     cx="426"
     cy="645.87637"
     rx="416"
     ry="32.5"
     fill="#3f3d56"
     id="ellipse4" />
  <polygon
     points="779.369 585.5 783.268 614.093 755.975 616.692 759.874 581.601 779.369 585.5"
     fill="#a0616a"
     id="polygon6" />
  <path
     d="M829.70151,303.81246s2.59933,35.091,2.59933,36.39069S814.1055,431.1799,814.1055,431.1799s-25.99336,49.38737,0,48.0877,18.19534-46.788,18.19534-46.788l27.293-75.38072-11.697-53.28638Z"
     transform="translate(-179 -110.81181)"
     fill="#a0616a"
     id="path8" />
  <polygon
     points="693.591 585.5 689.692 614.093 716.985 616.692 713.086 581.601 693.591 585.5"
     fill="#a0616a"
     id="polygon10" />
  <path
     d="M842.69819,428.58056l-6.49834,9.09768s-3.899,38.99,0,51.9867,11.697,72.7814,11.697,76.6804,1.29966,6.49834,0,7.798-5.19867,1.29967-2.59934,3.899,2.59934,10.39734,2.59934,10.39734V594.938l16.89568,96.17542s-10.39734,11.697-2.59934,11.697,36.3907,0,35.091-12.99667l-2.59933-1.29967s-3.899-85.77807-2.59934-89.67707,0-11.697,0-11.697-2.59934-3.899,0-5.19868,2.59934-11.697,2.59934-11.697l11.697-79.27974s10.39734,53.28638,16.89568,58.48505,5.19867,18.19535,5.19867,18.19535l5.19867,114.37076s-5.19867,12.99668,0,15.596,27.293,11.697,28.59269-1.29966,7.798-126.06777,7.798-131.26645-1.29966-7.798,0-11.697-1.29966-3.899,0-3.899-2.59933-3.899-2.59933-6.49834V479.2676s1.29967-12.99667,2.59933-15.596-1.29966-5.19867,0-9.09767-2.59933-16.89568-2.59933-16.89568l-58.485-15.596Z"
     transform="translate(-179 -110.81181)"
     fill="#2f2e41"
     id="path12" />
  <path
     d="M888.18656,719.70614s6.49834-6.49834-2.59934-6.49834a42.30349,42.30349,0,0,0-16.89568,3.899l-6.49834,23.394S835.55,761.94534,865.44237,759.346s25.34352-.64983,25.34352-.64983,9.09768-2.59934,10.39734-5.19867-2.59933-40.2897-2.59933-40.2897S894.6849,723.60514,888.18656,719.70614Z"
     transform="translate(-179 -110.81181)"
     fill="#2f2e41"
     id="path14" />
  <path
     d="M944.07227,719.70614s-6.49834-6.49834,2.59934-6.49834a42.30349,42.30349,0,0,1,16.89568,3.899l6.49833,23.394s26.64319,21.44452-3.24916,18.84518-29.24253-.64983-29.24253-.64983-9.09767-2.59934-10.39734-5.19867,6.49834-40.2897,6.49834-40.2897S937.57393,723.60514,944.07227,719.70614Z"
     transform="translate(-179 -110.81181)"
     fill="#2f2e41"
     id="path16" />
  <circle
     cx="680.59387"
     cy="56.53553"
     r="33.79136"
     fill="#a0616a"
     id="circle18" />
  <path
     d="M847.89686,192.041s5.19867,25.99336,5.19867,29.89236,22.09435,15.596,22.09435,15.596l24.69369-31.192s-15.596-22.09435-15.596-27.293Z"
     transform="translate(-179 -110.81181)"
     fill="#a0616a"
     id="path20" />
  <path
     d="M867.39187,225.83239s-11.32759-3.015-14.76147-8.00583c0,0-35.92557,35.29886-35.92557,41.79719l28.59269,50.68705s0,18.19534,2.59934,19.495,0,0,0,5.19867-7.798,38.99-5.19867,44.18871,5.19867,1.29966,2.59933,9.09767-9.09767,49.38738-9.09767,49.38738,23.394-7.798,57.18538,5.19867,74.08106-5.19867,74.08106-5.19867-10.39734-23.394-7.798-31.192-6.49834-22.09435-6.49834-22.09435l-6.49833-119.56943s9.09767-53.28638,2.59933-55.88572L936.27426,203.738l-41.62054-5.11533S884.28755,224.53273,867.39187,225.83239Z"
     transform="translate(-179 -110.81181)"
     fill="#d0cde1"
     id="path22" />
  <path
     d="M829.70151,250.52608l-12.99668,9.09767s-6.49834,19.495,0,28.59269,9.09768,22.09436,9.09768,22.09436l25.99335-2.59934Z"
     transform="translate(-179 -110.81181)"
     fill="#d0cde1"
     id="path24" />
  <path
     d="M833.79434,131.63567l-5.86153-2.34663s12.25588-13.493,29.30768-12.31967l-4.79592-5.27995s11.72307-4.69318,22.38037,7.62649c5.60233,6.4762,12.0843,14.08861,16.12514,22.66391h6.2773l-2.61991,5.76875,9.16968,5.76874-9.41178-1.03622a31.921,31.921,0,0,1-.8902,14.94041l.25228,4.55962s-10.90958-16.87938-10.90958-19.226v5.86654s-5.86153-5.27986-5.86153-8.79977l-3.19718,4.10659-1.59858-6.45322-19.716,6.45322,3.19717-5.27986-12.25588,1.76,4.79592-6.45322s-13.85447,7.6265-14.38744,14.07972c-.53281,6.45313-7.46,14.6663-7.46,14.6663l-3.19717-5.86654S818.34129,140.43544,833.79434,131.63567Z"
     transform="translate(-179 -110.81181)"
     fill="#2f2e41"
     id="path26" />
  <rect
     x="146.16914"
     y="282.832"
     width="516.46279"
     height="362.79825"
     fill="#f2f2f2"
     id="rect28" />
  <rect
     x="189.64496"
     y="421.25614"
     width="129.67789"
     height="226.37411"
     fill="#3f3d56"
     id="rect30" />
  <rect
     x="213.63162"
     y="434.83658"
     width="34.93166"
     height="32.56341"
     fill="#f2f2f2"
     id="rect32" />
  <rect
     x="260.40453"
     y="434.83658"
     width="34.93166"
     height="32.56341"
     fill="#f2f2f2"
     id="rect34" />
  <rect
     x="213.63162"
     y="479.24124"
     width="34.93166"
     height="33.74754"
     fill="#f2f2f2"
     id="rect36" />
  <rect
     x="260.40453"
     y="479.24124"
     width="34.93166"
     height="33.74754"
     fill="#f2f2f2"
     id="rect38" />
  <circle
     cx="302.83202"
     cy="549.6836"
     r="8.24541"
     fill="#ff6e00"
     id="circle40" />
  <rect
     x="362.79867"
     y="399.76697"
     width="256.35744"
     height="215.13036"
     fill="#3f3d56"
     id="rect42" />
  <polygon
     points="716.602 351.134 92.199 351.134 133.831 264.092 143.148 244.603 155.337 219.117 164.654 199.628 175.455 177.051 667.407 177.051 673.786 199.628 679.295 219.117 686.499 244.603 692.008 264.092 716.602 351.134"
     fill="#3f3d56"
     id="polygon44" />
  <rect
     x="362.79867"
     y="544.43652"
     width="256.35744"
     height="5.24708"
     fill="#f2f2f2"
     id="rect100" />
  <polygon
     points="679.295 219.117 155.337 219.117 164.654 199.628 673.786 199.628 679.295 219.117"
     fill="#ff6e00"
     id="polygon110" />
  <polygon
     points="692.008 264.092 133.831 264.092 143.148 244.603 686.499 244.603 692.008 264.092"
     fill="#ff6e00"
     id="polygon112" />
  <path
     d="M925.87692,262.22309s-7.52619,19.353-5.95407,38.50094a20.29311,20.29311,0,0,0,3.35473,9.58676h0L831.07338,354.085s-41.66157,4.31346-31.26423,22.50881,48.08771-9.09767,48.08771-9.09767,98.77475-14.29635,106.57275-28.59269,12.99668-74.08106,12.99668-74.08106Z"
     transform="translate(-179 -110.81181)"
     fill="#a0616a"
     id="path114" />
  <path
     d="M929.77592,208.93671h19.495s14.29635,2.59934,18.19535,28.59269,7.798,32.4917,3.899,32.4917-50.687-1.29967-50.687-2.59934S929.77592,208.93671,929.77592,208.93671Z"
     transform="translate(-179 -110.81181)"
     fill="#d0cde1"
     id="path116" />
  <circle
     cx="100"
     cy="386.37637"
     r="100"
     fill="#ff6e00"
     id="circle118" />
  <circle
     cx="100"
     cy="386.37637"
     r="86"
     opacity="0.1"
     id="circle120" />
  <path
     d="M274.87909,547.93609V535.419c-6.32734-.12344-12.87306-2.355-16.69109-5.45314l2.618-8.30317a26.68122,26.68122,0,0,0,15.70942,5.3285c7.74578,0,12.98225-5.081,12.98225-12.14493,0-6.81643-4.2548-11.02973-12.32763-14.74806-11.12757-4.957-18.00034-10.65821-18.00034-21.43985,0-10.28668,6.43653-18.09426,16.47324-19.95312V446.18818h6.76358v12.02149A26.54267,26.54267,0,0,1,296.5888,462.547l-2.7277,8.17972a24.10671,24.10671,0,0,0-13.74554-4.21391c-8.39987,0-11.56381,5.70063-11.56381,10.65821,0,6.44429,4.03642,9.66644,13.52769,14.12844,11.23623,5.20506,16.90948,11.64935,16.90948,22.67909,0,9.79049-6.0003,18.962-17.23706,21.06771v12.88981Z"
     transform="translate(-179 -110.81181)"
     fill="#f2f2f2"
     id="path122" />
  <metadata
     id="metadata945">
    <rdf:RDF>
      <cc:Work
         rdf:about="">
        <dc:title>business_shop</dc:title>
      </cc:Work>
    </rdf:RDF>
  </metadata>
  <g
     inkscape:label="Layer 1"
     id="layer1"
     transform="matrix(2.3004819,0,0,2.3820678,439.75106,421.80732)">
    <text
       style="font-size:14.1111px;line-height:1.25;font-family:sans-serif;-inkscape-font-specification:sans-serif;white-space:pre;shape-inside:url(#rect945)"
       id="text943"
       xml:space="preserve" />
    <circle
       r="0"
       cy="260.2366"
       cx="94.021576"
       id="path1285"
       style="opacity:1;fill:#d38d5f;fill-opacity:0;stroke:#483737;stroke-width:6.00001;stroke-linecap:round;stroke-miterlimit:4;stroke-dasharray:none;stop-color:#000000" />
    <g
       transform="translate(-8.5500409,-21.922619)"
       style="font-style:normal;font-variant:normal;font-weight:normal;font-stretch:normal;font-size:56.4655px;line-height:1.25;font-family:Yukarimobile;-inkscape-font-specification:Yukarimobile;fill:#00d400;stroke:none;stroke-width:1.05873"
       id="text892-4-9"
       aria-label="L" />
    <text
       xml:space="preserve"
       id="text1062"
       style="font-size:14.1111px;line-height:1.25;font-family:sans-serif;-inkscape-font-specification:sans-serif;white-space:pre;shape-inside:url(#rect1064)" />
    <g
       id="g1061" />
    <g
       id="g2042"
       transform="translate(48.145003,26.458333)" />
    <path
       style="color:#000000;font-style:normal;font-variant:normal;font-weight:normal;font-stretch:normal;font-size:medium;line-height:normal;font-family:sans-serif;font-variant-ligatures:normal;font-variant-position:normal;font-variant-caps:normal;font-variant-numeric:normal;font-variant-alternates:normal;font-variant-east-asian:normal;font-feature-settings:normal;font-variation-settings:normal;text-indent:0;text-align:start;text-decoration:none;text-decoration-line:none;text-decoration-style:solid;text-decoration-color:#000000;letter-spacing:normal;word-spacing:normal;text-transform:none;writing-mode:lr-tb;direction:ltr;text-orientation:mixed;dominant-baseline:auto;baseline-shift:baseline;text-anchor:start;white-space:normal;shape-padding:0;shape-margin:0;inline-size:0;clip-rule:nonzero;display:inline;overflow:visible;visibility:visible;isolation:auto;mix-blend-mode:normal;color-interpolation:sRGB;color-interpolation-filters:linearRGB;solid-color:#000000;solid-opacity:1;vector-effect:none;fill:#502d16;fill-opacity:1;fill-rule:nonzero;stroke:none;stroke-width:3.01897;stroke-linecap:butt;stroke-linejoin:miter;stroke-miterlimit:4;stroke-dasharray:none;stroke-dashoffset:0;stroke-opacity:1;color-rendering:auto;image-rendering:auto;shape-rendering:auto;text-rendering:auto;enable-background:accumulate;stop-color:#000000"
       d="m 25.149596,31.05762 c -0.0355,0.0126 -0.0704,0.0256 -0.1062,0.0376 0.0356,-0.0126 0.0707,-0.0253 0.1062,-0.0376 z"
       id="path2551" />
    <path
       style="color:#000000;font-style:normal;font-variant:normal;font-weight:normal;font-stretch:normal;font-size:medium;line-height:normal;font-family:sans-serif;font-variant-ligatures:normal;font-variant-position:normal;font-variant-caps:normal;font-variant-numeric:normal;font-variant-alternates:normal;font-variant-east-asian:normal;font-feature-settings:normal;font-variation-settings:normal;text-indent:0;text-align:start;text-decoration:none;text-decoration-line:none;text-decoration-style:solid;text-decoration-color:#000000;letter-spacing:normal;word-spacing:normal;text-transform:none;writing-mode:lr-tb;direction:ltr;text-orientation:mixed;dominant-baseline:auto;baseline-shift:baseline;text-anchor:start;white-space:normal;shape-padding:0;shape-margin:0;inline-size:0;clip-rule:nonzero;display:inline;overflow:visible;visibility:visible;isolation:auto;mix-blend-mode:normal;color-interpolation:sRGB;color-interpolation-filters:linearRGB;solid-color:#000000;solid-opacity:1;vector-effect:none;fill:#502d16;fill-opacity:1;fill-rule:nonzero;stroke:none;stroke-width:3.01897;stroke-linecap:butt;stroke-linejoin:miter;stroke-miterlimit:4;stroke-dasharray:none;stroke-dashoffset:0;stroke-opacity:1;color-rendering:auto;image-rendering:auto;shape-rendering:auto;text-rendering:auto;enable-background:accumulate;stop-color:#000000"
       d="m 25.697656,30.85615 c -0.0337,0.0126 -0.0672,0.0267 -0.10117,0.0397 0.0338,-0.0126 0.0673,-0.0266 0.10117,-0.0397 z"
       id="path2553" />
    <path
       style="color:#000000;font-style:normal;font-variant:normal;font-weight:normal;font-stretch:normal;font-size:medium;line-height:normal;font-family:sans-serif;font-variant-ligatures:normal;font-variant-position:normal;font-variant-caps:normal;font-variant-numeric:normal;font-variant-alternates:normal;font-variant-east-asian:normal;font-feature-settings:normal;font-variation-settings:normal;text-indent:0;text-align:start;text-decoration:none;text-decoration-line:none;text-decoration-style:solid;text-decoration-color:#000000;letter-spacing:normal;word-spacing:normal;text-transform:none;writing-mode:lr-tb;direction:ltr;text-orientation:mixed;dominant-baseline:auto;baseline-shift:baseline;text-anchor:start;white-space:normal;shape-padding:0;shape-margin:0;inline-size:0;clip-rule:nonzero;display:inline;overflow:visible;visibility:visible;isolation:auto;mix-blend-mode:normal;color-interpolation:sRGB;color-interpolation-filters:linearRGB;solid-color:#000000;solid-opacity:1;vector-effect:none;fill:#502d16;fill-opacity:1;fill-rule:nonzero;stroke:none;stroke-width:3.01897;stroke-linecap:butt;stroke-linejoin:miter;stroke-miterlimit:4;stroke-dasharray:none;stroke-dashoffset:0;stroke-opacity:1;color-rendering:auto;image-rendering:auto;shape-rendering:auto;text-rendering:auto;enable-background:accumulate;stop-color:#000000"
       d="m 26.247866,30.62728 c -0.036,0.0159 -0.0721,0.032 -0.10829,0.0476 0.0362,-0.0157 0.0722,-0.0319 0.10829,-0.0476 z"
       id="path2555" />
    <path
       style="color:#000000;font-style:normal;font-variant:normal;font-weight:normal;font-stretch:normal;font-size:medium;line-height:normal;font-family:sans-serif;font-variant-ligatures:normal;font-variant-position:normal;font-variant-caps:normal;font-variant-numeric:normal;font-variant-alternates:normal;font-variant-east-asian:normal;font-feature-settings:normal;font-variation-settings:normal;text-indent:0;text-align:start;text-decoration:none;text-decoration-line:none;text-decoration-style:solid;text-decoration-color:#000000;letter-spacing:normal;word-spacing:normal;text-transform:none;writing-mode:lr-tb;direction:ltr;text-orientation:mixed;dominant-baseline:auto;baseline-shift:baseline;text-anchor:start;white-space:normal;shape-padding:0;shape-margin:0;inline-size:0;clip-rule:nonzero;display:inline;overflow:visible;visibility:visible;isolation:auto;mix-blend-mode:normal;color-interpolation:sRGB;color-interpolation-filters:linearRGB;solid-color:#000000;solid-opacity:1;vector-effect:none;fill:#502d16;fill-opacity:1;fill-rule:nonzero;stroke:none;stroke-width:3.01897;stroke-linecap:butt;stroke-linejoin:miter;stroke-miterlimit:4;stroke-dasharray:none;stroke-dashoffset:0;stroke-opacity:1;color-rendering:auto;image-rendering:auto;shape-rendering:auto;text-rendering:auto;enable-background:accumulate;stop-color:#000000"
       d="m 26.761256,30.38827 c -0.027,0.0126 -0.0538,0.0267 -0.0809,0.0397 0.0271,-0.0126 0.0539,-0.0266 0.0809,-0.0397 z"
       id="path2557" />
    <path
       style="color:#000000;font-style:normal;font-variant:normal;font-weight:normal;font-stretch:normal;font-size:medium;line-height:normal;font-family:sans-serif;font-variant-ligatures:normal;font-variant-position:normal;font-variant-caps:normal;font-variant-numeric:normal;font-variant-alternates:normal;font-variant-east-asian:normal;font-feature-settings:normal;font-variation-settings:normal;text-indent:0;text-align:start;text-decoration:none;text-decoration-line:none;text-decoration-style:solid;text-decoration-color:#000000;letter-spacing:normal;word-spacing:normal;text-transform:none;writing-mode:lr-tb;direction:ltr;text-orientation:mixed;dominant-baseline:auto;baseline-shift:baseline;text-anchor:start;white-space:normal;shape-padding:0;shape-margin:0;inline-size:0;clip-rule:nonzero;display:inline;overflow:visible;visibility:visible;isolation:auto;mix-blend-mode:normal;color-interpolation:sRGB;color-interpolation-filters:linearRGB;solid-color:#000000;solid-opacity:1;vector-effect:none;fill:#502d16;fill-opacity:1;fill-rule:nonzero;stroke:none;stroke-width:3.01897;stroke-linecap:butt;stroke-linejoin:miter;stroke-miterlimit:4;stroke-dasharray:none;stroke-dashoffset:0;stroke-opacity:1;color-rendering:auto;image-rendering:auto;shape-rendering:auto;text-rendering:auto;enable-background:accumulate;stop-color:#000000"
       d="m 27.287646,30.11746 c -0.0288,0.0157 -0.0577,0.0309 -0.0866,0.0462 0.0289,-0.0154 0.0578,-0.0306 0.0866,-0.0462 z"
       id="path2559" />
    <path
       style="color:#000000;font-style:normal;font-variant:normal;font-weight:normal;font-stretch:normal;font-size:medium;line-height:normal;font-family:sans-serif;font-variant-ligatures:normal;font-variant-position:normal;font-variant-caps:normal;font-variant-numeric:normal;font-variant-alternates:normal;font-variant-east-asian:normal;font-feature-settings:normal;font-variation-settings:normal;text-indent:0;text-align:start;text-decoration:none;text-decoration-line:none;text-decoration-style:solid;text-decoration-color:#000000;letter-spacing:normal;word-spacing:normal;text-transform:none;writing-mode:lr-tb;direction:ltr;text-orientation:mixed;dominant-baseline:auto;baseline-shift:baseline;text-anchor:start;white-space:normal;shape-padding:0;shape-margin:0;inline-size:0;clip-rule:nonzero;display:inline;overflow:visible;visibility:visible;isolation:auto;mix-blend-mode:normal;color-interpolation:sRGB;color-interpolation-filters:linearRGB;solid-color:#000000;solid-opacity:1;vector-effect:none;fill:#502d16;fill-opacity:1;fill-rule:nonzero;stroke:none;stroke-width:3.01897;stroke-linecap:butt;stroke-linejoin:miter;stroke-miterlimit:4;stroke-dasharray:none;stroke-dashoffset:0;stroke-opacity:1;color-rendering:auto;image-rendering:auto;shape-rendering:auto;text-rendering:auto;enable-background:accumulate;stop-color:#000000"
       d="m 27.799596,29.82648 c -0.0348,0.0207 -0.0697,0.0409 -0.10465,0.0613 0.0349,-0.0204 0.0699,-0.0407 0.10465,-0.0613 z"
       id="path2561" />
    <path
       style="color:#000000;font-style:normal;font-variant:normal;font-weight:normal;font-stretch:normal;font-size:medium;line-height:normal;font-family:sans-serif;font-variant-ligatures:normal;font-variant-position:normal;font-variant-caps:normal;font-variant-numeric:normal;font-variant-alternates:normal;font-variant-east-asian:normal;font-feature-settings:normal;font-variation-settings:normal;text-indent:0;text-align:start;text-decoration:none;text-decoration-line:none;text-decoration-style:solid;text-decoration-color:#000000;letter-spacing:normal;word-spacing:normal;text-transform:none;writing-mode:lr-tb;direction:ltr;text-orientation:mixed;dominant-baseline:auto;baseline-shift:baseline;text-anchor:start;white-space:normal;shape-padding:0;shape-margin:0;inline-size:0;clip-rule:nonzero;display:inline;overflow:visible;visibility:visible;isolation:auto;mix-blend-mode:normal;color-interpolation:sRGB;color-interpolation-filters:linearRGB;solid-color:#000000;solid-opacity:1;vector-effect:none;fill:#502d16;fill-opacity:1;fill-rule:nonzero;stroke:none;stroke-width:3.01897;stroke-linecap:butt;stroke-linejoin:miter;stroke-miterlimit:4;stroke-dasharray:none;stroke-dashoffset:0;stroke-opacity:1;color-rendering:auto;image-rendering:auto;shape-rendering:auto;text-rendering:auto;enable-background:accumulate;stop-color:#000000"
       d="m 14.053546,4.55693 c -0.0356,0.0176 -0.0707,0.0362 -0.10619,0.0542 0.0355,-0.0179 0.0706,-0.0366 0.10619,-0.0542 z"
       id="path2563" />
    <path
       style="color:#000000;font-style:normal;font-variant:normal;font-weight:normal;font-stretch:normal;font-size:medium;line-height:normal;font-family:sans-serif;font-variant-ligatures:normal;font-variant-position:normal;font-variant-caps:normal;font-variant-numeric:normal;font-variant-alternates:normal;font-variant-east-asian:normal;font-feature-settings:normal;font-variation-settings:normal;text-indent:0;text-align:start;text-decoration:none;text-decoration-line:none;text-decoration-style:solid;text-decoration-color:#000000;letter-spacing:normal;word-spacing:normal;text-transform:none;writing-mode:lr-tb;direction:ltr;text-orientation:mixed;dominant-baseline:auto;baseline-shift:baseline;text-anchor:start;white-space:normal;shape-padding:0;shape-margin:0;inline-size:0;clip-rule:nonzero;display:inline;overflow:visible;visibility:visible;isolation:auto;mix-blend-mode:normal;color-interpolation:sRGB;color-interpolation-filters:linearRGB;solid-color:#000000;solid-opacity:1;vector-effect:none;fill:#502d16;fill-opacity:1;fill-rule:nonzero;stroke:none;stroke-width:3.01897;stroke-linecap:butt;stroke-linejoin:miter;stroke-miterlimit:4;stroke-dasharray:none;stroke-dashoffset:0;stroke-opacity:1;color-rendering:auto;image-rendering:auto;shape-rendering:auto;text-rendering:auto;enable-background:accumulate;stop-color:#000000"
       d="m 14.927246,4.16268 c -0.0471,0.0194 -0.0939,0.0393 -0.1408,0.0593 0.0468,-0.02 0.0936,-0.0398 0.1408,-0.0593 z"
       id="path2565" />
    <path
       style="color:#000000;font-style:normal;font-variant:normal;font-weight:normal;font-stretch:normal;font-size:medium;line-height:normal;font-family:sans-serif;font-variant-ligatures:normal;font-variant-position:normal;font-variant-caps:normal;font-variant-numeric:normal;font-variant-alternates:normal;font-variant-east-asian:normal;font-feature-settings:normal;font-variation-settings:normal;text-indent:0;text-align:start;text-decoration:none;text-decoration-line:none;text-decoration-style:solid;text-decoration-color:#000000;letter-spacing:normal;word-spacing:normal;text-transform:none;writing-mode:lr-tb;direction:ltr;text-orientation:mixed;dominant-baseline:auto;baseline-shift:baseline;text-anchor:start;white-space:normal;shape-padding:0;shape-margin:0;inline-size:0;clip-rule:nonzero;display:inline;overflow:visible;visibility:visible;isolation:auto;mix-blend-mode:normal;color-interpolation:sRGB;color-interpolation-filters:linearRGB;solid-color:#000000;solid-opacity:1;vector-effect:none;fill:#502d16;fill-opacity:1;fill-rule:nonzero;stroke:none;stroke-width:3.01897;stroke-linecap:butt;stroke-linejoin:miter;stroke-miterlimit:4;stroke-dasharray:none;stroke-dashoffset:0;stroke-opacity:1;color-rendering:auto;image-rendering:auto;shape-rendering:auto;text-rendering:auto;enable-background:accumulate;stop-color:#000000"
       d="m 15.845006,3.82046 c -0.059,0.0197 -0.11821,0.0387 -0.17691,0.0592 0.0587,-0.0206 0.11793,-0.0394 0.17691,-0.0592 z"
       id="path2569" />
    <path
       style="color:#000000;font-style:normal;font-variant:normal;font-weight:normal;font-stretch:normal;font-size:medium;line-height:normal;font-family:sans-serif;font-variant-ligatures:normal;font-variant-position:normal;font-variant-caps:normal;font-variant-numeric:normal;font-variant-alternates:normal;font-variant-east-asian:normal;font-feature-settings:normal;font-variation-settings:normal;text-indent:0;text-align:start;text-decoration:none;text-decoration-line:none;text-decoration-style:solid;text-decoration-color:#000000;letter-spacing:normal;word-spacing:normal;text-transform:none;writing-mode:lr-tb;direction:ltr;text-orientation:mixed;dominant-baseline:auto;baseline-shift:baseline;text-anchor:start;white-space:normal;shape-padding:0;shape-margin:0;inline-size:0;clip-rule:nonzero;display:inline;overflow:visible;visibility:visible;isolation:auto;mix-blend-mode:normal;color-interpolation:sRGB;color-interpolation-filters:linearRGB;solid-color:#000000;solid-opacity:1;vector-effect:none;fill:#502d16;fill-opacity:1;fill-rule:nonzero;stroke:none;stroke-width:3.01897;stroke-linecap:butt;stroke-linejoin:miter;stroke-miterlimit:4;stroke-dasharray:none;stroke-dashoffset:0;stroke-opacity:1;color-rendering:auto;image-rendering:auto;shape-rendering:auto;text-rendering:auto;enable-background:accumulate;stop-color:#000000"
       d="m 16.744706,3.55183 c -0.0856,0.0225 -0.17065,0.046 -0.25562,0.07 0.085,-0.024 0.17006,-0.0475 0.25562,-0.07 z"
       id="path2571" />
    <g
       id="g3532"
       transform="matrix(1.2773364,0,0,1.2773364,-2.1397251,-2.1997521)">
      <path
         id="path2567"
         style="color:#000000;font-style:normal;font-variant:normal;font-weight:normal;font-stretch:normal;font-size:medium;line-height:normal;font-family:sans-serif;font-variant-ligatures:normal;font-variant-position:normal;font-variant-caps:normal;font-variant-numeric:normal;font-variant-alternates:normal;font-variant-east-asian:normal;font-feature-settings:normal;font-variation-settings:normal;text-indent:0;text-align:start;text-decoration:none;text-decoration-line:none;text-decoration-style:solid;text-decoration-color:#000000;letter-spacing:normal;word-spacing:normal;text-transform:none;writing-mode:lr-tb;direction:ltr;text-orientation:mixed;dominant-baseline:auto;baseline-shift:baseline;text-anchor:start;white-space:normal;shape-padding:0;shape-margin:0;inline-size:0;clip-rule:nonzero;display:inline;overflow:visible;visibility:visible;isolation:auto;mix-blend-mode:normal;color-interpolation:sRGB;color-interpolation-filters:linearRGB;solid-color:#000000;solid-opacity:1;vector-effect:none;fill:#ffffff;fill-opacity:1;fill-rule:nonzero;stroke:none;stroke-width:3.05956;stroke-linecap:butt;stroke-linejoin:miter;stroke-miterlimit:4;stroke-dasharray:none;stroke-dashoffset:0;stroke-opacity:1;color-rendering:auto;image-rendering:auto;shape-rendering:auto;text-rendering:auto;enable-background:accumulate;stop-color:#000000"
         d="m 6.458986,3.1384 c -0.42405,0.008 -0.76986,0.27178 -1.28312,0.83977 -0.82138,0.9086 -1.2232,1.53323 -1.2232,1.53323 1.41182,-1.00595 2.88737,0.69501 2.31717,1.82623 -0.0576,0.0797 -0.11573,0.15907 -0.17209,0.2398 -0.7956,0.34059 -1.10095,0.11908 -2.14973,-0.0481 -1.05725,-0.16843 -1.3987,0.0668 -1.93734,1.16687 -0.53877,1.09997 -0.75292,1.81072 -0.75292,1.81072 1.04537,-1.31357 2.87549,-0.20465 2.77916,0.99685 -0.0522,0.13999 -0.10272,0.28056 -0.15143,0.42219 -0.64862,0.50726 -1.01859,0.33769 -2.05311,0.46046 -1.06312,0.12621 -1.32736,0.44527 -1.54564,1.65052 -0.21884,1.20523 -0.23098,1.94771 -0.23098,1.94771 0.62523,-1.49543 2.59434,-1.00942 2.94555,0.0915 -0.0183,0.20632 -0.0324,0.41389 -0.0434,0.62217 -0.47921,0.6005 -0.93379,0.59177 -1.87118,0.9643 -0.99291,0.39465 -1.16465,0.77102 -1.0599,1.99213 0.10417,1.22118 0.28734,1.94148 0.28734,1.94148 0.21921,-1.6601 2.37768,-1.74699 2.92436,-0.69093 0.028,0.14909 0.0581,0.29721 0.0899,0.44495 -0.3108,0.76782 -0.71241,0.85685 -1.54977,1.49188 -0.86116,0.65318 -0.93146,1.06254 -0.52088,2.2071 0.41,1.14483 0.76946,1.78647 0.76946,1.78647 -0.2105,-1.67444 1.96292,-2.27798 2.74918,-1.35652 0.0595,0.11946 0.11665,0.24024 0.1788,0.35814 -0.0881,0.83883 -0.4663,1.04333 -1.10434,1.88772 -0.65154,0.86239 -0.60812,1.27535 0.0977,2.2655 0.70536,0.99054 1.22524,1.5105 1.22524,1.5105 -0.67215,-1.59014 1.42978,-2.7143 2.42363,-1.92907 0.0658,0.0715 0.13042,0.14404 0.19741,0.21444 0.16253,0.85786 -0.16277,1.14467 -0.54777,2.14665 -0.38764,1.00896 -0.23177,1.39342 0.72036,2.14973 0.95181,0.75682 1.59525,1.11313 1.59525,1.11313 -1.08101,-1.33641 0.46318,-3.08102 1.61438,-2.63498 0.0873,0.0552 0.17621,0.10803 0.26458,0.16174 0.37505,0.78031 0.0639,1.10474 -0.046,2.16937 -0.11097,1.07516 0.13975,1.40655 1.25624,1.88825 1.11421,0.48138 1.82721,0.6572 1.82986,0.65786 -1.3526,-0.9798 -0.42669,-2.99392 0.75139,-2.98897 0.14356,0.0457 0.28636,0.0933 0.43148,0.13539 0.51157,0.63709 0.30787,1.03581 0.46199,2.07118 0.1592,1.06908 0.48411,1.32752 1.68518,1.51723 1.19986,0.19021 1.9349,0.18346 1.9363,0.18346 -1.66706,-0.6582 -1.34881,-3.10708 -0.0294,-3.09853 0.0438,0.002 0.0869,0.006 0.13073,0.008 l 0.30903,-3.04996 c -8.49177,-1.36094 -14.09377,-6.48872 -14.16502,-14.57378 0,-3.36135 1.13154,-6.44898 3.03186,-8.91109 l 0.48368,-4.81417 c -0.8759,0.1153 -1.17951,-0.0719 -2.14921,-0.52554 -0.36367,-0.1701 -0.6463,-0.25787 -0.90072,-0.25324 z" />
      <path
         style="color:#000000;font-style:normal;font-variant:normal;font-weight:normal;font-stretch:normal;font-size:medium;line-height:normal;font-family:sans-serif;font-variant-ligatures:normal;font-variant-position:normal;font-variant-caps:normal;font-variant-numeric:normal;font-variant-alternates:normal;font-variant-east-asian:normal;font-feature-settings:normal;font-variation-settings:normal;text-indent:0;text-align:start;text-decoration:none;text-decoration-line:none;text-decoration-style:solid;text-decoration-color:#000000;letter-spacing:normal;word-spacing:normal;text-transform:none;writing-mode:lr-tb;direction:ltr;text-orientation:mixed;dominant-baseline:auto;baseline-shift:baseline;text-anchor:start;white-space:normal;shape-padding:0;shape-margin:0;inline-size:0;clip-rule:nonzero;display:inline;overflow:visible;visibility:visible;isolation:auto;mix-blend-mode:normal;color-interpolation:sRGB;color-interpolation-filters:linearRGB;solid-color:#000000;solid-opacity:1;vector-effect:none;fill:#ff6e00;fill-opacity:1;fill-rule:nonzero;stroke:none;stroke-width:0.5;stroke-linecap:butt;stroke-linejoin:round;stroke-miterlimit:4;stroke-dasharray:none;stroke-dashoffset:0;stroke-opacity:1;color-rendering:auto;image-rendering:auto;shape-rendering:auto;text-rendering:auto;enable-background:accumulate;stop-color:#000000"
         d="m 20.573286,0 c -2.47122,0 -4.82389,0.5136 -6.96138,1.43577 l -0.36076,3.59079 v 8.8e-4 l -1.94067,19.31373 h 3.85353 l 2.09873,-20.89439 c 1.06373,-0.24683 2.16987,-0.3849 3.31055,-0.3849 8.07176,0 14.58428,6.50883 14.58428,14.58062 0,5.28126 -2.79024,9.89148 -6.97894,12.44969 l 0.18587,-1.83967 0.79032,-7.80513 h -0.004 l 0.2971,-2.94685 -1.99043,0.0101 2.38046,-3.9128 -3.91207,0.0101 -2.33217,3.94132 0.87814,-8.80034 -3.88793,-0.004 -0.30734,2.90223 -1.25939,12.69337 h 3.85353 l 0.38052,-3.89306 h 2.00067 l -0.78958,7.80512 -0.3593,3.544 -0.32344,3.19124 c 8.19996,-1.51373 14.43645,-8.71525 14.43647,-17.34525 0,-9.72529 -7.91784,-17.64239 -17.64311,-17.64239 z"
         id="path2573" />
    </g>
    <text
       id="text1573"
       y="-300.43436"
       x="84.402084"
       style="font-size:238.125px;line-height:1.25;font-family:sans-serif;-inkscape-font-specification:sans-serif;stroke-width:0.264583"
       xml:space="preserve"><tspan
         style="stroke-width:0.264583"
         y="-300.43436"
         x="84.402084"
         id="tspan1571"
         sodipodi:role="line" /></text>
  </g>
</svg>
