<?xml version="1.0" encoding="UTF-8" standalone="no"?>
<!-- Created with Inkscape (http://www.inkscape.org/) -->

<svg
   width="210mm"
   height="330mm"
   viewBox="0 0 210 330"
   version="1.1"
   id="svg5"
   inkscape:version="1.1.1 (3bf5ae0d25, 2021-09-20)"
   sodipodi:docname="drawing-raul.svg"
   xmlns:inkscape="http://www.inkscape.org/namespaces/inkscape"
   xmlns:sodipodi="http://sodipodi.sourceforge.net/DTD/sodipodi-0.dtd"
   xmlns="http://www.w3.org/2000/svg"
   xmlns:svg="http://www.w3.org/2000/svg">
  <sodipodi:namedview
     id="namedview7"
     pagecolor="#505050"
     bordercolor="#ffffff"
     borderopacity="1"
     inkscape:pageshadow="0"
     inkscape:pageopacity="0"
     inkscape:pagecheckerboard="1"
     inkscape:document-units="mm"
     showgrid="false"
     inkscape:zoom="0.70710678"
     inkscape:cx="152.02796"
     inkscape:cy="653.36667"
     inkscape:window-width="3440"
     inkscape:window-height="1411"
     inkscape:window-x="-9"
     inkscape:window-y="-9"
     inkscape:window-maximized="1"
     inkscape:current-layer="layer1" />
  <defs
     id="defs2">
    <rect
       x="92.394127"
       y="492.30899"
       width="129.62758"
       height="91.359863"
       id="rect1266" />
  </defs>
  <g
     inkscape:label="Layer 1"
     inkscape:groupmode="layer"
     id="layer1">
    <text
       xml:space="preserve"
       transform="scale(0.26458333)"
       id="text1264"
       style="font-style:normal;font-weight:normal;font-size:40px;line-height:1.25;font-family:sans-serif;letter-spacing:0px;word-spacing:0px;white-space:pre;shape-inside:url(#rect1266);fill:#000000;fill-opacity:1;stroke:none" />
    <g
       id="g23984"
       transform="rotate(90,-58.397317,-13.968844)">
      <rect
         style="fill:#999999;fill-rule:evenodd;stroke-width:0.390744"
         id="rect19838"
         width="230"
         height="70"
         x="-9.6572895"
         y="-162.58925"
         rx="6.7614994"
         ry="5.4250002" />
      <g
         id="g23975">
        <g
           aria-label="R"
           transform="matrix(-0.94662798,0,0,0.95620366,-12.875209,-10.630722)"
           id="text19814"
           style="font-size:90.6765px;line-height:1.25;letter-spacing:0px;word-spacing:0px;fill:#4d4d4d;stroke-width:2.26692">
          <path
             d="m -77.346034,-91.848191 v -7.979534 h 7.25412 v -46.063665 h -7.163444 v -7.79818 h 24.391979 v 53.861845 h 6.347354 v 7.979534 z m 49.418692,0.906765 q -5.349914,0 -8.704944,-1.994883 -3.264354,-1.994883 -5.077884,-5.621946 -1.722854,-3.627065 -2.629619,-8.523595 l -0.725412,-4.08044 q -0.725412,-4.17112 -2.176236,-5.98465 -1.360147,-1.81353 -4.624501,-1.81353 h -0.997441 v -2.72029 h 8.342237 q 8.160885,0 12.150651,3.35503 4.080443,3.35503 4.080443,11.78794 v 0.81609 q 0,1.90421 0.816088,2.81097 0.816089,0.81609 2.08556,0.81609 1.360147,0 2.085559,-0.81609 0.816088,-0.90676 0.816088,-2.81097 v -13.78283 h 8.523591 v 13.60148 q 0,6.800735 -3.083001,10.881182 -3.083001,4.080442 -10.881179,4.080442 z m -24.936037,-28.019044 v -8.16088 h 9.793061 q 4.805855,0 7.616826,-2.26692 2.810972,-2.26691 2.810972,-6.89141 0,-4.71518 -2.810972,-6.98209 -2.810971,-2.26691 -7.616826,-2.26691 h -9.793061 v -8.16089 h 15.77771 q 9.883739,0 15.868387,4.08044 5.984649,3.98977 5.984649,12.33201 0,7.97953 -5.984649,11.87862 -5.984648,3.89909 -15.868387,3.89909 h -8.79562 l -2.538942,2.53894 z"
             style="font-weight:300;font-family:'Montagu Slab';-inkscape-font-specification:'Montagu Slab Light'"
             id="path20084" />
        </g>
        <g
           aria-label="R"
           transform="matrix(0.94662798,0,0,0.95620366,223.56063,-10.630722)"
           id="g22469"
           style="font-size:90.6765px;line-height:1.25;letter-spacing:0px;word-spacing:0px;fill:#4d4d4d;stroke-width:2.26692">
          <path
             d="m -77.346034,-91.848191 v -7.979534 h 7.25412 v -46.063665 h -7.163444 v -7.79818 h 24.391979 v 53.861845 h 6.347354 v 7.979534 z m 49.418692,0.906765 q -5.349914,0 -8.704944,-1.994883 -3.264354,-1.994883 -5.077884,-5.621946 -1.722854,-3.627065 -2.629619,-8.523595 l -0.725412,-4.08044 q -0.725412,-4.17112 -2.176236,-5.98465 -1.360147,-1.81353 -4.624501,-1.81353 h -0.997441 v -2.72029 h 8.342237 q 8.160885,0 12.150651,3.35503 4.080443,3.35503 4.080443,11.78794 v 0.81609 q 0,1.90421 0.816088,2.81097 0.816089,0.81609 2.08556,0.81609 1.360147,0 2.085559,-0.81609 0.816088,-0.90676 0.816088,-2.81097 v -13.78283 h 8.523591 v 13.60148 q 0,6.800735 -3.083001,10.881182 -3.083001,4.080442 -10.881179,4.080442 z m -24.936037,-28.019044 v -8.16088 h 9.793061 q 4.805855,0 7.616826,-2.26692 2.810972,-2.26691 2.810972,-6.89141 0,-4.71518 -2.810972,-6.98209 -2.810971,-2.26691 -7.616826,-2.26691 h -9.793061 v -8.16089 h 15.77771 q 9.883739,0 15.868387,4.08044 5.984649,3.98977 5.984649,12.33201 0,7.97953 -5.984649,11.87862 -5.984648,3.89909 -15.868387,3.89909 h -8.79562 l -2.538942,2.53894 z"
             style="font-weight:300;font-family:'Montagu Slab';-inkscape-font-specification:'Montagu Slab Light'"
             id="path22467" />
        </g>
        <rect
           style="fill:#4d4d4d;fill-opacity:1;fill-rule:evenodd;stroke-width:0.267377"
           id="rect22495"
           width="91.910744"
           height="7.6300592"
           x="58.431969"
           y="-106.08635" />
      </g>
    </g>
    <g
       id="g24080"
       transform="rotate(90,-6.5737562,37.106363)">
      <rect
         style="fill:#999999;fill-rule:evenodd;stroke-width:0.390744"
         id="rect24066"
         width="230"
         height="70"
         x="-9.6572895"
         y="-162.58925"
         rx="6.7614994"
         ry="5.4250002" />
      <g
         id="g24078">
        <g
           aria-label="R"
           transform="matrix(-0.94662798,0,0,0.95620366,-12.875209,-10.630722)"
           id="g24070"
           style="font-size:90.6765px;line-height:1.25;letter-spacing:0px;word-spacing:0px;fill:#4d4d4d;stroke-width:2.26692">
          <path
             d="m -77.346034,-91.848191 v -7.979534 h 7.25412 v -46.063665 h -7.163444 v -7.79818 h 24.391979 v 53.861845 h 6.347354 v 7.979534 z m 49.418692,0.906765 q -5.349914,0 -8.704944,-1.994883 -3.264354,-1.994883 -5.077884,-5.621946 -1.722854,-3.627065 -2.629619,-8.523595 l -0.725412,-4.08044 q -0.725412,-4.17112 -2.176236,-5.98465 -1.360147,-1.81353 -4.624501,-1.81353 h -0.997441 v -2.72029 h 8.342237 q 8.160885,0 12.150651,3.35503 4.080443,3.35503 4.080443,11.78794 v 0.81609 q 0,1.90421 0.816088,2.81097 0.816089,0.81609 2.08556,0.81609 1.360147,0 2.085559,-0.81609 0.816088,-0.90676 0.816088,-2.81097 v -13.78283 h 8.523591 v 13.60148 q 0,6.800735 -3.083001,10.881182 -3.083001,4.080442 -10.881179,4.080442 z m -24.936037,-28.019044 v -8.16088 h 9.793061 q 4.805855,0 7.616826,-2.26692 2.810972,-2.26691 2.810972,-6.89141 0,-4.71518 -2.810972,-6.98209 -2.810971,-2.26691 -7.616826,-2.26691 h -9.793061 v -8.16089 h 15.77771 q 9.883739,0 15.868387,4.08044 5.984649,3.98977 5.984649,12.33201 0,7.97953 -5.984649,11.87862 -5.984648,3.89909 -15.868387,3.89909 h -8.79562 l -2.538942,2.53894 z"
             style="font-weight:300;font-family:'Montagu Slab';-inkscape-font-specification:'Montagu Slab Light'"
             id="path24068" />
        </g>
        <g
           aria-label="R"
           transform="matrix(0.94662798,0,0,0.95620366,223.56063,-10.630722)"
           id="g24074"
           style="font-size:90.6765px;line-height:1.25;letter-spacing:0px;word-spacing:0px;fill:#4d4d4d;stroke-width:2.26692">
          <path
             d="m -77.346034,-91.848191 v -7.979534 h 7.25412 v -46.063665 h -7.163444 v -7.79818 h 24.391979 v 53.861845 h 6.347354 v 7.979534 z m 49.418692,0.906765 q -5.349914,0 -8.704944,-1.994883 -3.264354,-1.994883 -5.077884,-5.621946 -1.722854,-3.627065 -2.629619,-8.523595 l -0.725412,-4.08044 q -0.725412,-4.17112 -2.176236,-5.98465 -1.360147,-1.81353 -4.624501,-1.81353 h -0.997441 v -2.72029 h 8.342237 q 8.160885,0 12.150651,3.35503 4.080443,3.35503 4.080443,11.78794 v 0.81609 q 0,1.90421 0.816088,2.81097 0.816089,0.81609 2.08556,0.81609 1.360147,0 2.085559,-0.81609 0.816088,-0.90676 0.816088,-2.81097 v -13.78283 h 8.523591 v 13.60148 q 0,6.800735 -3.083001,10.881182 -3.083001,4.080442 -10.881179,4.080442 z m -24.936037,-28.019044 v -8.16088 h 9.793061 q 4.805855,0 7.616826,-2.26692 2.810972,-2.26691 2.810972,-6.89141 0,-4.71518 -2.810972,-6.98209 -2.810971,-2.26691 -7.616826,-2.26691 h -9.793061 v -8.16089 h 15.77771 q 9.883739,0 15.868387,4.08044 5.984649,3.98977 5.984649,12.33201 0,7.97953 -5.984649,11.87862 -5.984648,3.89909 -15.868387,3.89909 h -8.79562 l -2.538942,2.53894 z"
             style="font-weight:300;font-family:'Montagu Slab';-inkscape-font-specification:'Montagu Slab Light'"
             id="path24072" />
        </g>
        <rect
           style="fill:#4d4d4d;fill-opacity:1;fill-rule:evenodd;stroke-width:0.267377"
           id="rect24076"
           width="91.910744"
           height="7.6300592"
           x="58.431969"
           y="-106.08635" />
      </g>
    </g>
  </g>
</svg>
