<?xml version="1.0" encoding="UTF-8" standalone="no"?>
<svg
   data-name="Layer 1"
   width="801.95277"
   height="537"
   viewBox="0 0 801.95277 537"
   version="1.1"
   id="svg78"
   sodipodi:docname="reviews.svg"
   inkscape:version="1.1.1 (3bf5ae0d25, 2021-09-20)"
   xmlns:inkscape="http://www.inkscape.org/namespaces/inkscape"
   xmlns:sodipodi="http://sodipodi.sourceforge.net/DTD/sodipodi-0.dtd"
   xmlns="http://www.w3.org/2000/svg"
   xmlns:svg="http://www.w3.org/2000/svg">
  <defs
     id="defs82" />
  <sodipodi:namedview
     id="namedview80"
     pagecolor="#505050"
     bordercolor="#ffffff"
     borderopacity="1"
     inkscape:pageshadow="0"
     inkscape:pageopacity="0"
     inkscape:pagecheckerboard="1"
     showgrid="false"
     inkscape:zoom="2"
     inkscape:cx="260.75"
     inkscape:cy="264"
     inkscape:window-width="3440"
     inkscape:window-height="1411"
     inkscape:window-x="-9"
     inkscape:window-y="-9"
     inkscape:window-maximized="1"
     inkscape:current-layer="svg78" />
  <path
     d="M857.27306,503.00345a10.52659,10.52659,0,0,1,1.6208-.34681l21.89865-44.4965-6.68563-10.02281,13.80744-12.06683,17.35728,21.24-35.35067,51.44811a10.49579,10.49579,0,1,1-12.64787-5.75514Z"
     transform="translate(-199.02361 -181.5)"
     fill="#a0616a"
     id="path2" />
  <path
     d="M894.65563,442.21808a4.51373,4.51373,0,0,1-1.01617.801l-22.4057,12.98872a4.49929,4.49929,0,0,1-6.32407-1.96783l-10.89742-23.02258a4.47646,4.47646,0,0,1,1.53737-5.64507l13.88914-9.44831a4.502,4.502,0,0,1,5.718.54388L894.57,435.94935a4.504,4.504,0,0,1,.08559,6.26873Z"
     transform="translate(-199.02361 -181.5)"
     fill="#ccc"
     id="path4" />
  <polygon
     points="727.092 515.689 715.262 518.908 697.217 474.811 714.677 470.06 727.092 515.689"
     fill="#a0616a"
     id="polygon6" />
  <path
     d="M906.71654,697.9165h23.64387a0,0,0,0,1,0,0v14.88687a0,0,0,0,1,0,0H891.82969a0,0,0,0,1,0,0v0A14.88686,14.88686,0,0,1,906.71654,697.9165Z"
     transform="translate(-352.24737 82.43915) rotate(-15.22067)"
     fill="#2f2e41"
     id="path8" />
  <polygon
     points="625.961 524.716 613.702 524.715 607.869 477.427 625.963 477.428 625.961 524.716"
     fill="#a0616a"
     id="polygon10" />
  <path
     d="M604.94435,521.2124h23.64387a0,0,0,0,1,0,0v14.88687a0,0,0,0,1,0,0H590.05749a0,0,0,0,1,0,0v0A14.88686,14.88686,0,0,1,604.94435,521.2124Z"
     fill="#2f2e41"
     id="path12" />
  <circle
     cx="638.87797"
     cy="194.16535"
     r="24.56103"
     fill="#a0616a"
     id="circle14" />
  <path
     d="M824.23418,672.5H807.48052a4.51307,4.51307,0,0,1-4.4956-4.22266c-4.99219-79.36132-2.072-136.28906,9.18969-179.15332a4.67831,4.67831,0,0,1,.18238-.55175l.89721-2.24317a4.47879,4.47879,0,0,1,4.17847-2.8291h34.4519a4.4927,4.4927,0,0,1,3.41675,1.57129l4.67945,5.46c.0913.10645.17675.21484.259.3291,21.10107,29.42578,40.01123,86.9541,61.91235,164.27832a4.48492,4.48492,0,0,1-2.95849,5.5166L901.18877,666.417a4.52419,4.52419,0,0,1-5.425-2.332l-46.72266-96.90723a3.50019,3.50019,0,0,0-6.62036,1.0459l-13.728,100.38575A4.51721,4.51721,0,0,1,824.23418,672.5Z"
     transform="translate(-199.02361 -181.5)"
     fill="#2f2e41"
     id="path16" />
  <path
     d="M858.09209,490.93066c-.04711,0-.094-.001-.14135-.00195l-41.84839-1.32129a4.4854,4.4854,0,0,1-4.32862-3.9541c-5.30493-42.94141,9.24415-54.44531,15.74561-57.39746a3.45965,3.45965,0,0,0,2.01221-2.74316l.5625-4.501a4.48359,4.48359,0,0,1,.88916-2.18555c10.1936-13.20508,24.11279-17.43359,31.50268-18.77832a4.49307,4.49307,0,0,1,5.25122,3.84961l.84278,6.46289a3.56038,3.56038,0,0,0,.71338,1.69141c21.259,27.792-2.42456,68.82715-7.38819,76.77051h0A4.50839,4.50839,0,0,1,858.09209,490.93066Z"
     transform="translate(-199.02361 -181.5)"
     fill="#ccc"
     id="path18" />
  <path
     d="M887.45489,378.43036A97.75259,97.75259,0,0,0,867.94952,358.01c-6.19825-4.84149-13.09766-8.97778-20.70948-10.95636-7.6123-1.97858-16.01855-1.64179-22.96338,2.04919-6.94531,3.691-14.12548,11.02454-14.16943,18.88941-.01367,2.52661.62891,5.94494,3.11719,5.50781l.71973.09546q9.00366-1.81851,18.00683-3.637,3.835,13.30782,7.66943,26.61572c.53907,1.86981,1.26172,3.96081,3.03663,4.75818,1.67187.751,3.60449.04345,5.29589-.66266.27832-.11627,2.66844-5.48164,2.66844-5.48164a1.00005,1.00005,0,0,1,1.72268-.28844l1.41987,1.77465a2,2,0,0,0,2.3321.59617q14.68261-6.12932,29.3657-12.25858c1.35254-.56476,2.86475-1.30218,3.25684-2.71478C889.09454,380.94391,888.26739,379.57556,887.45489,378.43036Z"
     transform="translate(-199.02361 -181.5)"
     fill="#2f2e41"
     id="path20" />
  <path
     d="M999.97639,718.5h-301a1,1,0,0,1,0-2h301a1,1,0,0,1,0,2Z"
     transform="translate(-199.02361 -181.5)"
     fill="#3f3d56"
     id="path22" />
  <path
     d="M836.79313,562.66406a3.20348,3.20348,0,0,1-1.88891-.62549l-4.552-3.30712a2.20585,2.20585,0,0,0-2.60181,0l-4.552,3.30712a3.21341,3.21341,0,0,1-4.94507-3.59228l1.73877-5.35108a2.20712,2.20712,0,0,0-.8042-2.4746l-4.552-3.30762a3.21342,3.21342,0,0,1,1.88891-5.813h5.62647a2.20812,2.20812,0,0,0,2.10522-1.5293l1.73853-5.35107a3.2133,3.2133,0,0,1,6.1123,0l1.73877,5.35107a2.20783,2.20783,0,0,0,2.105,1.5293h5.62647a3.21342,3.21342,0,0,1,1.88891,5.813l-4.552,3.30713a2.20831,2.20831,0,0,0-.804,2.47509l1.73877,5.35108a3.16508,3.16508,0,0,1-1.16748,3.59228A3.20336,3.20336,0,0,1,836.79313,562.66406Z"
     transform="translate(-199.02361 -181.5)"
     fill="#ffbd2d"
     id="path24" />
  <path
     d="M854.18878,551.96606a10.74269,10.74269,0,0,0,1.40649-16.41247l7.77327-93.87138-23.14412,3.1839-.4403,91.20458a10.80091,10.80091,0,0,0,14.40466,15.89537Z"
     transform="translate(-199.02361 -181.5)"
     fill="#a0616a"
     id="path26" />
  <path
     d="M864.88091,455.19922a4.51364,4.51364,0,0,1-1.28051-.18555l-24.846-7.30762a4.49928,4.49928,0,0,1-2.92676-5.9414l9.19482-23.75391a4.47646,4.47646,0,0,1,5.15259-2.77148l16.4148,3.56836a4.502,4.502,0,0,1,3.54223,4.52148l-.76367,27.49219a4.504,4.504,0,0,1-4.48755,4.37793Z"
     transform="translate(-199.02361 -181.5)"
     fill="#ccc"
     id="path28" />
  <path
     d="M 432.00012,391.46648 H 7 a 7.00787,7.00787 0 0 1 -7,-7 v -127 a 7.00787,7.00787 0 0 1 7,-7 h 425.00012 a 7.00786,7.00786 0 0 1 7,7 v 127 a 7.00786,7.00786 0 0 1 -7,7 z M 7,252.46648 a 5.0058,5.0058 0 0 0 -5,5 v 127 a 5.0058,5.0058 0 0 0 5,5 h 425.00012 a 5.00572,5.00572 0 0 0 5,-5 v -127 a 5.00572,5.00572 0 0 0 -5,-5 z"
     fill="#3f3d56"
     id="path30" />
  <path
     d="M391.99874,625.97522a3.9245,3.9245,0,0,1-2.314-.76625l-5.57643-4.0514a2.70227,2.70227,0,0,0-3.18734,0l-5.57643,4.0514a3.9366,3.9366,0,0,1-6.058-4.40073l2.13008-6.55533a2.7053,2.7053,0,0,0-.98488-3.03212l-5.57643-4.0514a3.93647,3.93647,0,0,1,2.31372-7.1212h6.893a2.70468,2.70468,0,0,0,2.57871-1.87346l2.12978-6.55533a3.93667,3.93667,0,0,1,7.48818,0l2.12977,6.55533a2.70469,2.70469,0,0,0,2.57871,1.87346h6.893a3.93652,3.93652,0,0,1,2.31371,7.1212l-5.57642,4.0514a2.70531,2.70531,0,0,0-.98489,3.03212l2.13008,6.55533a3.87738,3.87738,0,0,1-1.43022,4.40073A3.92432,3.92432,0,0,1,391.99874,625.97522Z"
     transform="translate(-199.02361 -181.5)"
     fill="#ffbd2d"
     id="path32" />
  <path
     d="M448.50715,625.97522a3.92453,3.92453,0,0,1-2.314-.76625l-5.57643-4.0514a2.70227,2.70227,0,0,0-3.18734,0l-5.57643,4.0514a3.93659,3.93659,0,0,1-6.058-4.40073l2.13008-6.55533a2.70532,2.70532,0,0,0-.98489-3.03212l-5.57643-4.0514a3.9366,3.9366,0,0,1,2.314-7.1212h6.8927a2.70467,2.70467,0,0,0,2.5787-1.87346l2.13008-6.55533a3.93646,3.93646,0,0,1,7.48788,0l2.12978,6.55533a2.705,2.705,0,0,0,2.579,1.87346h6.8927a3.9366,3.9366,0,0,1,2.314,7.1212l-5.57643,4.0514a2.705,2.705,0,0,0-.98518,3.03212l2.13007,6.55533a3.87738,3.87738,0,0,1-1.43022,4.40073A3.92429,3.92429,0,0,1,448.50715,625.97522Z"
     transform="translate(-199.02361 -181.5)"
     fill="#ffbd2d"
     id="path34" />
  <path
     d="M505.01555,625.97522a3.92434,3.92434,0,0,1-2.31372-.76625l-5.57642-4.0514a2.70843,2.70843,0,0,0-3.18765,0l-5.57642,4.0514a3.93639,3.93639,0,0,1-6.05766-4.40073l2.12978-6.55533a2.7053,2.7053,0,0,0-.98488-3.03212l-5.57643-4.0514a3.9366,3.9366,0,0,1,2.314-7.1212h6.8927a2.70468,2.70468,0,0,0,2.57871-1.87346l2.13008-6.55533a3.93645,3.93645,0,0,1,7.48787,0l2.13008,6.55533a2.70469,2.70469,0,0,0,2.57871,1.87346h6.8927a3.9366,3.9366,0,0,1,2.314,7.1212l-5.57643,4.0514a2.7053,2.7053,0,0,0-.98488,3.03212l2.12978,6.55533a3.87769,3.87769,0,0,1-1.42992,4.40073A3.9252,3.9252,0,0,1,505.01555,625.97522Z"
     transform="translate(-199.02361 -181.5)"
     fill="#ffbd2d"
     id="path36" />
  <path
     d="M561.52425,625.97522a3.92452,3.92452,0,0,1-2.314-.76625l-5.57643-4.0514a2.70227,2.70227,0,0,0-3.18734,0L544.87,625.209a3.93659,3.93659,0,0,1-6.058-4.40073l2.13007-6.55533a2.70383,2.70383,0,0,0-.98518-3.03152l-5.57643-4.052a3.9366,3.9366,0,0,1,2.314-7.1212h6.8927a2.705,2.705,0,0,0,2.579-1.87346l2.12978-6.55533a3.93646,3.93646,0,0,1,7.48788,0l2.13008,6.55533a2.70467,2.70467,0,0,0,2.5787,1.87346h6.8927a3.9366,3.9366,0,0,1,2.314,7.1212l-5.57643,4.0514a2.70532,2.70532,0,0,0-.98489,3.03212l2.13008,6.55533A3.87738,3.87738,0,0,1,563.838,625.209,3.92432,3.92432,0,0,1,561.52425,625.97522Z"
     transform="translate(-199.02361 -181.5)"
     fill="#ffbd2d"
     id="path38" />
  <path
     d="M599.06451,626.36377a4.31316,4.31316,0,0,1-2.54126-.84082,4.26058,4.26058,0,0,1-1.57129-4.835l2.13037-6.55518a2.31852,2.31852,0,0,0-.84424-2.59814l-5.57666-4.05176a4.324,4.324,0,0,1,2.54175-7.82227H600.096a2.31763,2.31763,0,0,0,2.21-1.60595l2.13037-6.55518a4.32409,4.32409,0,0,1,8.22486,0l2.12988,6.55518a2.31815,2.31815,0,0,0,2.2102,1.60595h6.89283a4.32414,4.32414,0,0,1,2.54174,7.82227l-5.57641,4.05176a2.31752,2.31752,0,0,0-.84448,2.59814l2.13012,6.55518a4.32423,4.32423,0,0,1-6.65429,4.83447l-5.57618-4.05127a2.318,2.318,0,0,0-2.73217,0l-5.57642,4.05127A4.31,4.31,0,0,1,599.06451,626.36377Zm9.48413-7.33887a4.31539,4.31539,0,0,1,2.54126.82813l5.57641,4.05127a2.32385,2.32385,0,0,0,3.57642-2.59815l-2.12988-6.55517a4.31291,4.31291,0,0,1,1.571-4.83448l5.57617-4.05175a2.324,2.324,0,0,0-1.366-4.20411h-6.89283a4.31293,4.31293,0,0,1-4.1123-2.98779l-2.13013-6.55517a2.324,2.324,0,0,0-4.42065,0l-2.13013,6.55517a4.3124,4.3124,0,0,1-4.11206,2.98779h-6.89282a2.324,2.324,0,0,0-1.36621,4.20411l5.57666,4.05175a4.31367,4.31367,0,0,1,1.5708,4.83448l-2.13037,6.55517a2.324,2.324,0,0,0,3.57641,2.59815l5.57666-4.05127A4.31666,4.31666,0,0,1,608.54864,619.0249Z"
     transform="translate(-199.02361 -181.5)"
     fill="#3f3d56"
     id="path40" />
  <path
     d="M254.02363,461.5a6.5,6.5,0,0,0,0,13h329a6.5,6.5,0,1,0,0-13Z"
     transform="translate(-199.02361 -181.5)"
     fill="#ccc"
     id="path42" />
  <path
     d="M254.02363,495.5a6.5,6.5,0,0,0,0,13h329a6.5,6.5,0,1,0,0-13Z"
     transform="translate(-199.02361 -181.5)"
     fill="#ccc"
     id="path44" />
  <path
     d="M254.02363,529.5a6.5,6.5,0,0,0,0,13h329a6.5,6.5,0,1,0,0-13Z"
     transform="translate(-199.02361 -181.5)"
     fill="#ccc"
     id="path46" />
  <path
     d="M254.02363,461.5a6.5,6.5,0,0,0,0,13h329a6.5,6.5,0,1,0,0-13Z"
     transform="translate(-199.02361 -181.5)"
     fill="#ccc"
     id="path48" />
  <path
     d="M254.02363,495.5a6.5,6.5,0,0,0,0,13h329a6.5,6.5,0,1,0,0-13Z"
     transform="translate(-199.02361 -181.5)"
     fill="#ccc"
     id="path50" />
  <path
     d="M254.02363,529.5a6.5,6.5,0,0,0,0,13h329a6.5,6.5,0,1,0,0-13Z"
     transform="translate(-199.02361 -181.5)"
     fill="#ccc"
     id="path52" />
  <path
     d="M 358.9295,141 H 5.8159856 A 5.8225244,7.00787 0 0 1 0,134 V 7 A 5.8225244,7.00787 0 0 1 5.8159856,0 H 358.9295 a 5.8225161,7.00786 0 0 1 5.81598,7 v 127 a 5.8225161,7.00786 0 0 1 -5.81598,7 z M 5.8159856,2 A 4.1590944,5.0058 0 0 0 1.6617102,7 v 127 a 4.1590944,5.0058 0 0 0 4.1542754,5 H 358.9295 a 4.1590279,5.00572 0 0 0 4.15427,-5 V 7 A 4.1590279,5.00572 0 0 0 358.9295,2 Z"
     fill="#3f3d56"
     id="path54"
     style="stroke-width:0.911513" />
  <path
     d="m 45.697046,30 a 5.400558,6.5 0 0 0 0,13 H 319.04837 a 5.400558,6.5 0 0 0 0,-13 z"
     fill="#cccccc"
     id="path66"
     style="stroke-width:0.911513" />
  <path
     d="m 45.697046,64 a 5.400558,6.5 0 0 0 0,13 H 319.04837 a 5.400558,6.5 0 0 0 0,-13 z"
     fill="#cccccc"
     id="path68"
     style="stroke-width:0.911513" />
  <path
     d="m 45.697046,98 a 5.400558,6.5 0 0 0 0,13 H 319.04837 a 5.400558,6.5 0 0 0 0,-13 z"
     fill="#cccccc"
     id="path70"
     style="stroke-width:0.911513" />
  <path
     d="m 45.697046,30 a 5.400558,6.5 0 0 0 0,13 H 319.04837 a 5.400558,6.5 0 0 0 0,-13 z"
     fill="#cccccc"
     id="path72"
     style="stroke-width:0.911513" />
  <path
     d="m 45.697046,64 a 5.400558,6.5 0 0 0 0,13 H 319.04837 a 5.400558,6.5 0 0 0 0,-13 z"
     fill="#cccccc"
     id="path74"
     style="stroke-width:0.911513" />
  <path
     d="m 45.697046,98 a 5.400558,6.5 0 0 0 0,13 H 319.04837 a 5.400558,6.5 0 0 0 0,-13 z"
     fill="#cccccc"
     id="path76"
     style="stroke-width:0.911513" />
  <g
     aria-label="Sin Comentarios"
     id="text3365"
     style="font-size:40px;line-height:1.25;letter-spacing:0px;word-spacing:0px;fill:#cccccc;fill-opacity:1"
     transform="matrix(1.2999945,0,0,1.2999945,-623.77527,155.21528)">
    <path
       d="m 499.69297,20.997087 c 0.72,-0.16 1.08,-0.6 1.04,-1.32 -0.24,-2.88 -2.16,-8.24 -10.4,-8.24 -8.96,0 -9.68,7.08 -9.64,8.28 0,9.2 12.04,8.44 12.8,11.84 0.24,1.08 -1.2,2.24 -3.16,2.24 -1.88,0 -3.36,-1.12 -3.52,-3.04 -0.08,-0.84 -0.52,-1.2 -1.32,-1.04 l -4.52,1 c -0.72,0.16 -1.08,0.6 -1.04,1.32 0.2,3.12 2,8.64 10.4,8.64 9.48,0 10.84,-7.08 10.84,-8.28 0,-9.2 -12.64,-9.12 -13.2,-12.24 -0.16,-0.92 0.8,-1.84 2.36,-1.84 1.88,0 3.2,1.04 3.48,2.68 0.12,0.8 0.52,1.16 1.32,1 z"
       style="font-family:Cubano;-inkscape-font-specification:Cubano;fill:#cccccc;fill-opacity:1"
       id="path6788" />
    <path
       d="m 509.65292,12.077087 c 0.8,0 1.2,0.4 1.2,1.2 v 25.6 c 0,0.76 -0.4,1.2 -1.2,1.2 h -4.4 c -0.76,0 -1.2,-0.44 -1.2,-1.2 v -25.6 c 0,-0.8 0.44,-1.2 1.2,-1.2 z"
       style="font-family:Cubano;-inkscape-font-specification:Cubano;fill:#cccccc;fill-opacity:1"
       id="path6790" />
    <path
       d="m 521.93286,12.077087 c 0.68,0 1.12,0.28 1.4,0.92 l 5.44,13.32 c 0.16,0.36 0.48,0.28 0.48,-0.12 v -12.92 c 0,-0.8 0.44,-1.2 1.2,-1.2 h 4.48 c 0.8,0 1.2,0.4 1.2,1.2 v 25.6 c 0,0.76 -0.4,1.2 -1.2,1.2 h -5.88 c -0.68,0 -1.12,-0.28 -1.4,-0.92 l -5.44,-13.32 c -0.16,-0.36 -0.48,-0.28 -0.48,0.12 v 12.92 c 0,0.76 -0.4,1.2 -1.2,1.2 h -4.48 c -0.76,0 -1.2,-0.44 -1.2,-1.2 v -25.6 c 0,-0.8 0.44,-1.2 1.2,-1.2 z"
       style="font-family:Cubano;-inkscape-font-specification:Cubano;fill:#cccccc;fill-opacity:1"
       id="path6792" />
    <path
       d="m 551.73283,31.077087 c 0,2.64 0.56,9.72 10.04,9.72 8.52,0 9.84,-5.72 10,-8.76 0.04,-0.6 -0.32,-1.04 -0.88,-1.16 l -4.52,-1 c -0.8,-0.2 -1.44,0.32 -1.56,1.16 -0.24,1.84 -0.84,2.88 -3.04,2.88 -2.96,0 -3.16,-1.88 -3.16,-4.96 v -5.76 c 0,-3.08 0.2,-4.96 3.16,-4.96 2.16,0 2.88,1.04 3.08,2.8 0.12,0.84 0.76,1.4 1.6,1.24 l 4.44,-1 c 0.56,-0.12 0.92,-0.56 0.88,-1.12 -0.16,-3.08 -1.48,-8.8 -10,-8.8 -9.48,0 -10.04,7.08 -10.04,9.72 z"
       style="font-family:Cubano;-inkscape-font-specification:Cubano;fill:#cccccc;fill-opacity:1"
       id="path6794" />
    <path
       d="m 594.21281,21.077087 c 0,-2.64 -0.56,-9.72 -10.04,-9.72 -9.48,0 -10.04,7.08 -10.04,9.72 v 10 c 0,2.64 0.56,9.72 10.04,9.72 9.48,0 10.04,-7.08 10.04,-9.72 z m -6.88,7.88 c 0,3.08 -0.2,4.96 -3.16,4.96 -2.96,0 -3.16,-1.88 -3.16,-4.96 v -5.76 c 0,-3.08 0.2,-4.96 3.16,-4.96 2.96,0 3.16,1.88 3.16,4.96 z"
       style="font-family:Cubano;-inkscape-font-specification:Cubano;fill:#cccccc;fill-opacity:1"
       id="path6796" />
    <path
       d="m 607.29276,12.077087 c 0.72,0 1.12,0.4 1.28,1.08 l 2.84,11.64 c 0.08,0.4 0.4,0.4 0.48,0 l 2.84,-11.64 c 0.16,-0.68 0.56,-1.08 1.28,-1.08 h 8.28 c 0.8,0 1.2,0.4 1.2,1.2 v 25.6 c 0,0.76 -0.4,1.2 -1.2,1.2 h -4.48 c -0.76,0 -1.2,-0.44 -1.2,-1.2 v -15.76 c 0,-0.28 -0.36,-0.32 -0.44,-0.04 l -3.88,15.96 c -0.16,0.68 -0.6,1.04 -1.32,1.04 h -2.64 c -0.72,0 -1.16,-0.36 -1.32,-1.04 l -3.88,-15.96 c -0.08,-0.28 -0.44,-0.24 -0.44,0.04 v 15.76 c 0,0.76 -0.4,1.2 -1.2,1.2 h -4.48 c -0.8,0 -1.2,-0.44 -1.2,-1.2 v -25.6 c 0,-0.8 0.4,-1.2 1.2,-1.2 z"
       style="font-family:Cubano;-inkscape-font-specification:Cubano;fill:#cccccc;fill-opacity:1"
       id="path6798" />
    <path
       d="m 647.49275,12.077087 c 0.8,0 1.2,0.4 1.2,1.2 v 4.48 c 0,0.76 -0.4,1.2 -1.2,1.2 h -9.68 c -0.76,0 -1.2,0.4 -1.2,1.2 v 1.28 c 0,0.76 0.44,1.2 1.2,1.2 h 6.2 c 0.8,0 1.2,0.4 1.2,1.2 v 4.48 c 0,0.76 -0.4,1.2 -1.2,1.2 h -6.2 c -0.76,0 -1.2,0.4 -1.2,1.2 v 1.28 c 0,0.76 0.44,1.2 1.2,1.2 h 9.68 c 0.8,0 1.2,0.4 1.2,1.2 v 4.48 c 0,0.8 -0.4,1.2 -1.2,1.2 h -16.8 c -0.76,0 -1.2,-0.44 -1.2,-1.2 v -25.6 c 0,-0.8 0.44,-1.2 1.2,-1.2 z"
       style="font-family:Cubano;-inkscape-font-specification:Cubano;fill:#cccccc;fill-opacity:1"
       id="path6800" />
    <path
       d="m 658.85272,12.077087 c 0.68,0 1.12,0.28 1.4,0.92 l 5.44,13.32 c 0.16,0.36 0.48,0.28 0.48,-0.12 v -12.92 c 0,-0.8 0.44,-1.2 1.2,-1.2 h 4.48 c 0.8,0 1.2,0.4 1.2,1.2 v 25.6 c 0,0.76 -0.4,1.2 -1.2,1.2 h -5.88 c -0.68,0 -1.12,-0.28 -1.4,-0.92 l -5.44,-13.32 c -0.16,-0.36 -0.48,-0.28 -0.48,0.12 v 12.92 c 0,0.76 -0.4,1.2 -1.2,1.2 h -4.48 c -0.76,0 -1.2,-0.44 -1.2,-1.2 v -25.6 c 0,-0.8 0.44,-1.2 1.2,-1.2 z"
       style="font-family:Cubano;-inkscape-font-specification:Cubano;fill:#cccccc;fill-opacity:1"
       id="path6802" />
    <path
       d="m 683.45272,20.157087 c 0,-0.8 -0.4,-1.2 -1.2,-1.2 h -5.6 c -0.76,0 -1.2,-0.44 -1.2,-1.2 v -4.48 c 0,-0.8 0.44,-1.2 1.2,-1.2 h 20.48 c 0.8,0 1.2,0.4 1.2,1.2 v 4.48 c 0,0.76 -0.4,1.2 -1.2,1.2 h -5.6 c -0.76,0 -1.2,0.4 -1.2,1.2 v 18.72 c 0,0.76 -0.4,1.2 -1.2,1.2 h -4.48 c -0.76,0 -1.2,-0.44 -1.2,-1.2 z"
       style="font-family:Cubano;-inkscape-font-specification:Cubano;fill:#cccccc;fill-opacity:1"
       id="path6804" />
    <path
       d="m 719.73267,38.717087 c 0,0.88 -0.4,1.36 -1.2,1.36 h -4.48 c -0.76,0 -1.2,-0.4 -1.2,-1.2 v -3.48 c 0,-0.8 -0.4,-1.2 -1.2,-1.2 h -3.44 c -0.76,0 -1.2,0.4 -1.2,1.2 v 3.48 c 0,0.8 -0.4,1.2 -1.2,1.2 h -4.48 c -0.76,0 -1.2,-0.48 -1.2,-1.36 v -16.96 c 0,-5.04 0.8,-10.4 9.8,-10.4 9,0 9.8,5.36 9.8,10.4 z m -6.88,-16.96 c 0,-1.92 -0.28,-2.88 -2.92,-2.88 -2.64,0 -2.92,0.96 -2.92,2.88 v 4.36 c 0,0.76 0.44,1.2 1.2,1.2 h 3.44 c 0.8,-0.04 1.2,-0.44 1.2,-1.24 z"
       style="font-family:Cubano;-inkscape-font-specification:Cubano;fill:#cccccc;fill-opacity:1"
       id="path6806" />
    <path
       d="m 740.37267,30.037087 c -0.08,-0.2 -0.04,-0.4 0.12,-0.52 2.12,-1.52 3.04,-4.12 3.04,-7.84 0,-6.56 -2.88,-9.6 -10,-9.6 h -8.76 c -0.72,0 -1.24,0.52 -1.24,1.24 v 25.52 c 0,0.72 0.52,1.24 1.24,1.24 h 4.48 c 0.72,0 1.24,-0.52 1.24,-1.24 v -6.32 c 0,-0.72 0.52,-1.24 1.24,-1.24 h 1.6 c 0.12,0 0.24,0.08 0.32,0.2 l 4.16,8.04 c 0.16,0.36 0.52,0.56 0.92,0.56 h 4.56 c 1.24,0 1.88,-1.12 1.32,-2.16 z m -6.6,-11.08 c 1.92,0 2.88,0.24 2.88,2.72 0,2.48 -0.96,2.72 -2.88,2.72 h -2.04 c -0.72,0 -1.24,-0.52 -1.24,-1.24 v -2.96 c 0,-0.72 0.52,-1.24 1.24,-1.24 z"
       style="font-family:Cubano;-inkscape-font-specification:Cubano;fill:#cccccc;fill-opacity:1"
       id="path6808" />
    <path
       d="m 752.85262,12.077087 c 0.8,0 1.2,0.4 1.2,1.2 v 25.6 c 0,0.76 -0.4,1.2 -1.2,1.2 h -4.4 c -0.76,0 -1.2,-0.44 -1.2,-1.2 v -25.6 c 0,-0.8 0.44,-1.2 1.2,-1.2 z"
       style="font-family:Cubano;-inkscape-font-specification:Cubano;fill:#cccccc;fill-opacity:1"
       id="path6810" />
    <path
       d="m 777.73255,21.077087 c 0,-2.64 -0.56,-9.72 -10.04,-9.72 -9.48,0 -10.04,7.08 -10.04,9.72 v 10 c 0,2.64 0.56,9.72 10.04,9.72 9.48,0 10.04,-7.08 10.04,-9.72 z m -6.88,7.88 c 0,3.08 -0.2,4.96 -3.16,4.96 -2.96,0 -3.16,-1.88 -3.16,-4.96 v -5.76 c 0,-3.08 0.2,-4.96 3.16,-4.96 2.96,0 3.16,1.88 3.16,4.96 z"
       style="font-family:Cubano;-inkscape-font-specification:Cubano;fill:#cccccc;fill-opacity:1"
       id="path6812" />
    <path
       d="m 799.85252,20.997087 c 0.72,-0.16 1.08,-0.6 1.04,-1.32 -0.24,-2.88 -2.16,-8.24 -10.4,-8.24 -8.96,0 -9.68,7.08 -9.64,8.28 0,9.2 12.04,8.44 12.8,11.84 0.24,1.08 -1.2,2.24 -3.16,2.24 -1.88,0 -3.36,-1.12 -3.52,-3.04 -0.08,-0.84 -0.52,-1.2 -1.32,-1.04 l -4.52,1 c -0.72,0.16 -1.08,0.6 -1.04,1.32 0.2,3.12 2,8.64 10.4,8.64 9.48,0 10.84,-7.08 10.84,-8.28 0,-9.2 -12.64,-9.12 -13.2,-12.24 -0.16,-0.92 0.8,-1.84 2.36,-1.84 1.88,0 3.2,1.04 3.48,2.68 0.12,0.8 0.52,1.16 1.32,1 z"
       style="font-family:Cubano;-inkscape-font-specification:Cubano;fill:#cccccc;fill-opacity:1"
       id="path6814" />
  </g>
  <path
     d="m 796.07357,141 h -353.1135 a 5.8225244,7.00787 0 0 1 -5.81599,-7 V 7 a 5.8225244,7.00787 0 0 1 5.81599,-7 h 353.1135 a 5.822516,7.00786 0 0 1 5.81599,7 v 127 a 5.822516,7.00786 0 0 1 -5.81599,7 z M 442.96007,2 a 4.1590944,5.0058 0 0 0 -4.15427,5 v 127 a 4.1590944,5.0058 0 0 0 4.15427,5 h 353.1135 a 4.1590279,5.00572 0 0 0 4.15427,-5 V 7 a 4.1590279,5.00572 0 0 0 -4.15427,-5 z"
     fill="#3f3d56"
     id="path7664"
     style="stroke-width:0.911512" />
  <path
     d="m 482.84113,30 a 5.400558,6.5 0 0 0 0,13 h 273.35131 a 5.400558,6.5 0 0 0 0,-13 z"
     fill="#cccccc"
     id="path7666"
     style="stroke-width:0.911512" />
  <path
     d="m 482.84113,64 a 5.400558,6.5 0 0 0 0,13 h 273.35131 a 5.400558,6.5 0 0 0 0,-13 z"
     fill="#cccccc"
     id="path7668"
     style="stroke-width:0.911512" />
  <path
     d="m 482.84113,98 a 5.400558,6.5 0 0 0 0,13 h 273.35131 a 5.400558,6.5 0 0 0 0,-13 z"
     fill="#cccccc"
     id="path7670"
     style="stroke-width:0.911512" />
  <path
     d="m 482.84113,30 a 5.400558,6.5 0 0 0 0,13 h 273.35131 a 5.400558,6.5 0 0 0 0,-13 z"
     fill="#cccccc"
     id="path7672"
     style="stroke-width:0.911512" />
  <path
     d="m 482.84113,64 a 5.400558,6.5 0 0 0 0,13 h 273.35131 a 5.400558,6.5 0 0 0 0,-13 z"
     fill="#cccccc"
     id="path7674"
     style="stroke-width:0.911512" />
  <path
     d="m 482.84113,98 a 5.400558,6.5 0 0 0 0,13 h 273.35131 a 5.400558,6.5 0 0 0 0,-13 z"
     fill="#cccccc"
     id="path7676"
     style="stroke-width:0.911512" />
  <path
     style="fill:#ff7f2a;fill-opacity:1;stroke:#ffffff;stroke-width:0.000550963;stroke-linecap:round;stroke-linejoin:round;paint-order:stroke fill markers"
     d="m -206.87078,260.39959 c 0.75731,-0.75734 1.37921,-1.3747 1.38201,-1.37191 0.003,0.003 -0.0283,0.0796 -0.0691,0.17069 -0.15911,0.35541 -0.39685,0.74259 -0.65861,1.07257 -0.17811,0.22454 -0.54309,0.59177 -0.76308,0.76779 -0.19536,0.15631 -0.51349,0.3699 -0.72684,0.48798 -0.14769,0.0817 -0.50425,0.24986 -0.52991,0.24986 -0.006,0 0.60818,-0.61964 1.36549,-1.37698 z"
     id="path8392" />
</svg>
