<?xml version="1.0" encoding="UTF-8" standalone="no"?>
<svg
   data-name="Layer 1"
   width="801.95277"
   height="537"
   viewBox="0 0 801.95277 537"
   version="1.1"
   id="svg78"
   sodipodi:docname="reviews.svg"
   inkscape:version="1.1.1 (3bf5ae0d25, 2021-09-20)"
   xmlns:inkscape="http://www.inkscape.org/namespaces/inkscape"
   xmlns:sodipodi="http://sodipodi.sourceforge.net/DTD/sodipodi-0.dtd"
   xmlns="http://www.w3.org/2000/svg"
   xmlns:svg="http://www.w3.org/2000/svg">
  <defs
     id="defs82" />
  <sodipodi:namedview
     id="namedview80"
     pagecolor="#505050"
     bordercolor="#ffffff"
     borderopacity="1"
     inkscape:pageshadow="0"
     inkscape:pageopacity="0"
     inkscape:pagecheckerboard="1"
     showgrid="false"
     inkscape:zoom="2"
     inkscape:cx="260.75"
     inkscape:cy="264"
     inkscape:window-width="3440"
     inkscape:window-height="1411"
     inkscape:window-x="-9"
     inkscape:window-y="-9"
     inkscape:window-maximized="1"
     inkscape:current-layer="svg78" />
  <path
     d="M857.27306,503.00345a10.52659,10.52659,0,0,1,1.6208-.34681l21.89865-44.4965-6.68563-10.02281,13.80744-12.06683,17.35728,21.24-35.35067,51.44811a10.49579,10.49579,0,1,1-12.64787-5.75514Z"
     transform="translate(-199.02361 -181.5)"
     fill="#a0616a"
     id="path2" />
  <path
     d="M894.65563,442.21808a4.51373,4.51373,0,0,1-1.01617.801l-22.4057,12.98872a4.49929,4.49929,0,0,1-6.32407-1.96783l-10.89742-23.02258a4.47646,4.47646,0,0,1,1.53737-5.64507l13.88914-9.44831a4.502,4.502,0,0,1,5.718.54388L894.57,435.94935a4.504,4.504,0,0,1,.08559,6.26873Z"
     transform="translate(-199.02361 -181.5)"
     fill="#ccc"
     id="path4" />
  <polygon
     points="727.092 515.689 715.262 518.908 697.217 474.811 714.677 470.06 727.092 515.689"
     fill="#a0616a"
     id="polygon6" />
  <path
     d="M906.71654,697.9165h23.64387a0,0,0,0,1,0,0v14.88687a0,0,0,0,1,0,0H891.82969a0,0,0,0,1,0,0v0A14.88686,14.88686,0,0,1,906.71654,697.9165Z"
     transform="translate(-352.24737 82.43915) rotate(-15.22067)"
     fill="#2f2e41"
     id="path8" />
  <polygon
     points="625.961 524.716 613.702 524.715 607.869 477.427 625.963 477.428 625.961 524.716"
     fill="#a0616a"
     id="polygon10" />
  <path
     d="M604.94435,521.2124h23.64387a0,0,0,0,1,0,0v14.88687a0,0,0,0,1,0,0H590.05749a0,0,0,0,1,0,0v0A14.88686,14.88686,0,0,1,604.94435,521.2124Z"
     fill="#2f2e41"
     id="path12" />
  <circle
     cx="638.87797"
     cy="194.16535"
     r="24.56103"
     fill="#a0616a"
     id="circle14" />
  <path
     d="M824.23418,672.5H807.48052a4.51307,4.51307,0,0,1-4.4956-4.22266c-4.99219-79.36132-2.072-136.28906,9.18969-179.15332a4.67831,4.67831,0,0,1,.18238-.55175l.89721-2.24317a4.47879,4.47879,0,0,1,4.17847-2.8291h34.4519a4.4927,4.4927,0,0,1,3.41675,1.57129l4.67945,5.46c.0913.10645.17675.21484.259.3291,21.10107,29.42578,40.01123,86.9541,61.91235,164.27832a4.48492,4.48492,0,0,1-2.95849,5.5166L901.18877,666.417a4.52419,4.52419,0,0,1-5.425-2.332l-46.72266-96.90723a3.50019,3.50019,0,0,0-6.62036,1.0459l-13.728,100.38575A4.51721,4.51721,0,0,1,824.23418,672.5Z"
     transform="translate(-199.02361 -181.5)"
     fill="#2f2e41"
     id="path16" />
  <path
     d="M858.09209,490.93066c-.04711,0-.094-.001-.14135-.00195l-41.84839-1.32129a4.4854,4.4854,0,0,1-4.32862-3.9541c-5.30493-42.94141,9.24415-54.44531,15.74561-57.39746a3.45965,3.45965,0,0,0,2.01221-2.74316l.5625-4.501a4.48359,4.48359,0,0,1,.88916-2.18555c10.1936-13.20508,24.11279-17.43359,31.50268-18.77832a4.49307,4.49307,0,0,1,5.25122,3.84961l.84278,6.46289a3.56038,3.56038,0,0,0,.71338,1.69141c21.259,27.792-2.42456,68.82715-7.38819,76.77051h0A4.50839,4.50839,0,0,1,858.09209,490.93066Z"
     transform="translate(-199.02361 -181.5)"
     fill="#ccc"
     id="path18" />
  <path
     d="M887.45489,378.43036A97.75259,97.75259,0,0,0,867.94952,358.01c-6.19825-4.84149-13.09766-8.97778-20.70948-10.95636-7.6123-1.97858-16.01855-1.64179-22.96338,2.04919-6.94531,3.691-14.12548,11.02454-14.16943,18.88941-.01367,2.52661.62891,5.94494,3.11719,5.50781l.71973.09546q9.00366-1.81851,18.00683-3.637,3.835,13.30782,7.66943,26.61572c.53907,1.86981,1.26172,3.96081,3.03663,4.75818,1.67187.751,3.60449.04345,5.29589-.66266.27832-.11627,2.66844-5.48164,2.66844-5.48164a1.00005,1.00005,0,0,1,1.72268-.28844l1.41987,1.77465a2,2,0,0,0,2.3321.59617q14.68261-6.12932,29.3657-12.25858c1.35254-.56476,2.86475-1.30218,3.25684-2.71478C889.09454,380.94391,888.26739,379.57556,887.45489,378.43036Z"
     transform="translate(-199.02361 -181.5)"
     fill="#2f2e41"
     id="path20" />
  <path
     d="M999.97639,718.5h-301a1,1,0,0,1,0-2h301a1,1,0,0,1,0,2Z"
     transform="translate(-199.02361 -181.5)"
     fill="#3f3d56"
     id="path22" />
  <path
     d="M836.79313,562.66406a3.20348,3.20348,0,0,1-1.88891-.62549l-4.552-3.30712a2.20585,2.20585,0,0,0-2.60181,0l-4.552,3.30712a3.21341,3.21341,0,0,1-4.94507-3.59228l1.73877-5.35108a2.20712,2.20712,0,0,0-.8042-2.4746l-4.552-3.30762a3.21342,3.21342,0,0,1,1.88891-5.813h5.62647a2.20812,2.20812,0,0,0,2.10522-1.5293l1.73853-5.35107a3.2133,3.2133,0,0,1,6.1123,0l1.73877,5.35107a2.20783,2.20783,0,0,0,2.105,1.5293h5.62647a3.21342,3.21342,0,0,1,1.88891,5.813l-4.552,3.30713a2.20831,2.20831,0,0,0-.804,2.47509l1.73877,5.35108a3.16508,3.16508,0,0,1-1.16748,3.59228A3.20336,3.20336,0,0,1,836.79313,562.66406Z"
     transform="translate(-199.02361 -181.5)"
     fill="#ffbd2d"
     id="path24" />
  <path
     d="M854.18878,551.96606a10.74269,10.74269,0,0,0,1.40649-16.41247l7.77327-93.87138-23.14412,3.1839-.4403,91.20458a10.80091,10.80091,0,0,0,14.40466,15.89537Z"
     transform="translate(-199.02361 -181.5)"
     fill="#a0616a"
     id="path26" />
  <path
     d="M864.88091,455.19922a4.51364,4.51364,0,0,1-1.28051-.18555l-24.846-7.30762a4.49928,4.49928,0,0,1-2.92676-5.9414l9.19482-23.75391a4.47646,4.47646,0,0,1,5.15259-2.77148l16.4148,3.56836a4.502,4.502,0,0,1,3.54223,4.52148l-.76367,27.49219a4.504,4.504,0,0,1-4.48755,4.37793Z"
     transform="translate(-199.02361 -181.5)"
     fill="#ccc"
     id="path28" />
  <path
     d="M 432.00012,391.46648 H 7 a 7.00787,7.00787 0 0 1 -7,-7 v -127 a 7.00787,7.00787 0 0 1 7,-7 h 425.00012 a 7.00786,7.00786 0 0 1 7,7 v 127 a 7.00786,7.00786 0 0 1 -7,7 z M 7,252.46648 a 5.0058,5.0058 0 0 0 -5,5 v 127 a 5.0058,5.0058 0 0 0 5,5 h 425.00012 a 5.00572,5.00572 0 0 0 5,-5 v -127 a 5.00572,5.00572 0 0 0 -5,-5 z"
     fill="#3f3d56"
     id="path30" />
  <path
     d="M391.99874,625.97522a3.9245,3.9245,0,0,1-2.314-.76625l-5.57643-4.0514a2.70227,2.70227,0,0,0-3.18734,0l-5.57643,4.0514a3.9366,3.9366,0,0,1-6.058-4.40073l2.13008-6.55533a2.7053,2.7053,0,0,0-.98488-3.03212l-5.57643-4.0514a3.93647,3.93647,0,0,1,2.31372-7.1212h6.893a2.70468,2.70468,0,0,0,2.57871-1.87346l2.12978-6.55533a3.93667,3.93667,0,0,1,7.48818,0l2.12977,6.55533a2.70469,2.70469,0,0,0,2.57871,1.87346h6.893a3.93652,3.93652,0,0,1,2.31371,7.1212l-5.57642,4.0514a2.70531,2.70531,0,0,0-.98489,3.03212l2.13008,6.55533a3.87738,3.87738,0,0,1-1.43022,4.40073A3.92432,3.92432,0,0,1,391.99874,625.97522Z"
     transform="translate(-199.02361 -181.5)"
     fill="#ffbd2d"
     id="path32" />
  <path
     d="M448.50715,625.97522a3.92453,3.92453,0,0,1-2.314-.76625l-5.57643-4.0514a2.70227,2.70227,0,0,0-3.18734,0l-5.57643,4.0514a3.93659,3.93659,0,0,1-6.058-4.40073l2.13008-6.55533a2.70532,2.70532,0,0,0-.98489-3.03212l-5.57643-4.0514a3.9366,3.9366,0,0,1,2.314-7.1212h6.8927a2.70467,2.70467,0,0,0,2.5787-1.87346l2.13008-6.55533a3.93646,3.93646,0,0,1,7.48788,0l2.12978,6.55533a2.705,2.705,0,0,0,2.579,1.87346h6.8927a3.9366,3.9366,0,0,1,2.314,7.1212l-5.57643,4.0514a2.705,2.705,0,0,0-.98518,3.03212l2.13007,6.55533a3.87738,3.87738,0,0,1-1.43022,4.40073A3.92429,3.92429,0,0,1,448.50715,625.97522Z"
     transform="translate(-199.02361 -181.5)"
     fill="#ffbd2d"
     id="path34" />
  <path
     d="M505.01555,625.97522a3.92434,3.92434,0,0,1-2.31372-.76625l-5.57642-4.0514a2.70843,2.70843,0,0,0-3.18765,0l-5.57642,4.0514a3.93639,3.93639,0,0,1-6.05766-4.40073l2.12978-6.55533a2.7053,2.7053,0,0,0-.98488-3.03212l-5.57643-4.0514a3.9366,3.9366,0,0,1,2.314-7.1212h6.8927a2.70468,2.70468,0,0,0,2.57871-1.87346l2.13008-6.55533a3.93645,3.93645,0,0,1,7.48787,0l2.13008,6.55533a2.70469,2.70469,0,0,0,2.57871,1.87346h6.8927a3.9366,3.9366,0,0,1,2.314,7.1212l-5.57643,4.0514a2.7053,2.7053,0,0,0-.98488,3.03212l2.12978,6.55533a3.87769,3.87769,0,0,1-1.42992,4.40073A3.9252,3.9252,0,0,1,505.01555,625.97522Z"
     transform="translate(-199.02361 -181.5)"
     fill="#ffbd2d"
     id="path36" />
  <path
     d="M561.52425,625.97522a3.92452,3.92452,0,0,1-2.314-.76625l-5.57643-4.0514a2.70227,2.70227,0,0,0-3.18734,0L544.87,625.209a3.93659,3.93659,0,0,1-6.058-4.40073l2.13007-6.55533a2.70383,2.70383,0,0,0-.98518-3.03152l-5.57643-4.052a3.9366,3.9366,0,0,1,2.314-7.1212h6.8927a2.705,2.705,0,0,0,2.579-1.87346l2.12978-6.55533a3.93646,3.93646,0,0,1,7.48788,0l2.13008,6.55533a2.70467,2.70467,0,0,0,2.5787,1.87346h6.8927a3.9366,3.9366,0,0,1,2.314,7.1212l-5.57643,4.0514a2.70532,2.70532,0,0,0-.98489,3.03212l2.13008,6.55533A3.87738,3.87738,0,0,1,563.838,625.209,3.92432,3.92432,0,0,1,561.52425,625.97522Z"
     transform="translate(-199.02361 -181.5)"
     fill="#ffbd2d"
     id="path38" />
  <path
     d="M599.06451,626.36377a4.31316,4.31316,0,0,1-2.54126-.84082,4.26058,4.26058,0,0,1-1.57129-4.835l2.13037-6.55518a2.31852,2.31852,0,0,0-.84424-2.59814l-5.57666-4.05176a4.324,4.324,0,0,1,2.54175-7.82227H600.096a2.31763,2.31763,0,0,0,2.21-1.60595l2.13037-6.55518a4.32409,4.32409,0,0,1,8.22486,0l2.12988,6.55518a2.31815,2.31815,0,0,0,2.2102,1.60595h6.89283a4.32414,4.32414,0,0,1,2.54174,7.82227l-5.57641,4.05176a2.31752,2.31752,0,0,0-.84448,2.59814l2.13012,6.55518a4.32423,4.32423,0,0,1-6.65429,4.83447l-5.57618-4.05127a2.318,2.318,0,0,0-2.73217,0l-5.57642,4.05127A4.31,4.31,0,0,1,599.06451,626.36377Zm9.48413-7.33887a4.31539,4.31539,0,0,1,2.54126.82813l5.57641,4.05127a2.32385,2.32385,0,0,0,3.57642-2.59815l-2.12988-6.55517a4.31291,4.31291,0,0,1,1.571-4.83448l5.57617-4.05175a2.324,2.324,0,0,0-1.366-4.20411h-6.89283a4.31293,4.31293,0,0,1-4.1123-2.98779l-2.13013-6.55517a2.324,2.324,0,0,0-4.42065,0l-2.13013,6.55517a4.3124,4.3124,0,0,1-4.11206,2.98779h-6.89282a2.324,2.324,0,0,0-1.36621,4.20411l5.57666,4.05175a4.31367,4.31367,0,0,1,1.5708,4.83448l-2.13037,6.55517a2.324,2.324,0,0,0,3.57641,2.59815l5.57666-4.05127A4.31666,4.31666,0,0,1,608.54864,619.0249Z"
     transform="translate(-199.02361 -181.5)"
     fill="#3f3d56"
     id="path40" />
  <path
     d="M254.02363,461.5a6.5,6.5,0,0,0,0,13h329a6.5,6.5,0,1,0,0-13Z"
     transform="translate(-199.02361 -181.5)"
     fill="#ccc"
     id="path42" />
  <path
     d="M254.02363,495.5a6.5,6.5,0,0,0,0,13h329a6.5,6.5,0,1,0,0-13Z"
     transform="translate(-199.02361 -181.5)"
     fill="#ccc"
     id="path44" />
  <path
     d="M254.02363,529.5a6.5,6.5,0,0,0,0,13h329a6.5,6.5,0,1,0,0-13Z"
     transform="translate(-199.02361 -181.5)"
     fill="#ccc"
     id="path46" />
  <path
     d="M254.02363,461.5a6.5,6.5,0,0,0,0,13h329a6.5,6.5,0,1,0,0-13Z"
     transform="translate(-199.02361 -181.5)"
     fill="#ccc"
     id="path48" />
  <path
     d="M254.02363,495.5a6.5,6.5,0,0,0,0,13h329a6.5,6.5,0,1,0,0-13Z"
     transform="translate(-199.02361 -181.5)"
     fill="#ccc"
     id="path50" />
  <path
     d="M254.02363,529.5a6.5,6.5,0,0,0,0,13h329a6.5,6.5,0,1,0,0-13Z"
     transform="translate(-199.02361 -181.5)"
     fill="#ccc"
     id="path52" />
  <path
     d="M 358.9295,141 H 5.8159856 A 5.8225244,7.00787 0 0 1 0,134 V 7 A 5.8225244,7.00787 0 0 1 5.8159856,0 H 358.9295 a 5.8225161,7.00786 0 0 1 5.81598,7 v 127 a 5.8225161,7.00786 0 0 1 -5.81598,7 z M 5.8159856,2 A 4.1590944,5.0058 0 0 0 1.6617102,7 v 127 a 4.1590944,5.0058 0 0 0 4.1542754,5 H 358.9295 a 4.1590279,5.00572 0 0 0 4.15427,-5 V 7 A 4.1590279,5.00572 0 0 0 358.9295,2 Z"
     fill="#3f3d56"
     id="path54"
     style="stroke-width:0.911513" />
  <path
     d="m 45.697046,30 a 5.400558,6.5 0 0 0 0,13 H 319.04837 a 5.400558,6.5 0 0 0 0,-13 z"
     fill="#cccccc"
     id="path66"
     style="stroke-width:0.911513" />
  <path
     d="m 45.697046,64 a 5.400558,6.5 0 0 0 0,13 H 319.04837 a 5.400558,6.5 0 0 0 0,-13 z"
     fill="#cccccc"
     id="path68"
     style="stroke-width:0.911513" />
  <path
     d="m 45.697046,98 a 5.400558,6.5 0 0 0 0,13 H 319.04837 a 5.400558,6.5 0 0 0 0,-13 z"
     fill="#cccccc"
     id="path70"
     style="stroke-width:0.911513" />
  <path
     d="m 45.697046,30 a 5.400558,6.5 0 0 0 0,13 H 319.04837 a 5.400558,6.5 0 0 0 0,-13 z"
     fill="#cccccc"
     id="path72"
     style="stroke-width:0.911513" />
  <path
     d="m 45.697046,64 a 5.400558,6.5 0 0 0 0,13 H 319.04837 a 5.400558,6.5 0 0 0 0,-13 z"
     fill="#cccccc"
     id="path74"
     style="stroke-width:0.911513" />
  <path
     d="m 45.697046,98 a 5.400558,6.5 0 0 0 0,13 H 319.04837 a 5.400558,6.5 0 0 0 0,-13 z"
     fill="#cccccc"
     id="path76"
     style="stroke-width:0.911513" />
  <g
     aria-label="Sin Comentarios"
     id="text3365"
     style="font-size:40px;line-height:1.25;letter-spacing:0px;word-spacing:0px;fill:#cccccc;fill-opacity:1"
     transform="matrix(1.2999945,0,0,1.2999945,-623.77527,155.21528)" />
  <path
     d="m 796.07357,141 h -353.1135 a 5.8225244,7.00787 0 0 1 -5.81599,-7 V 7 a 5.8225244,7.00787 0 0 1 5.81599,-7 h 353.1135 a 5.822516,7.00786 0 0 1 5.81599,7 v 127 a 5.822516,7.00786 0 0 1 -5.81599,7 z M 442.96007,2 a 4.1590944,5.0058 0 0 0 -4.15427,5 v 127 a 4.1590944,5.0058 0 0 0 4.15427,5 h 353.1135 a 4.1590279,5.00572 0 0 0 4.15427,-5 V 7 a 4.1590279,5.00572 0 0 0 -4.15427,-5 z"
     fill="#3f3d56"
     id="path7664"
     style="stroke-width:0.911512" />
  <path
     d="m 482.84113,30 a 5.400558,6.5 0 0 0 0,13 h 273.35131 a 5.400558,6.5 0 0 0 0,-13 z"
     fill="#cccccc"
     id="path7666"
     style="stroke-width:0.911512" />
  <path
     d="m 482.84113,64 a 5.400558,6.5 0 0 0 0,13 h 273.35131 a 5.400558,6.5 0 0 0 0,-13 z"
     fill="#cccccc"
     id="path7668"
     style="stroke-width:0.911512" />
  <path
     d="m 482.84113,98 a 5.400558,6.5 0 0 0 0,13 h 273.35131 a 5.400558,6.5 0 0 0 0,-13 z"
     fill="#cccccc"
     id="path7670"
     style="stroke-width:0.911512" />
  <path
     d="m 482.84113,30 a 5.400558,6.5 0 0 0 0,13 h 273.35131 a 5.400558,6.5 0 0 0 0,-13 z"
     fill="#cccccc"
     id="path7672"
     style="stroke-width:0.911512" />
  <path
     d="m 482.84113,64 a 5.400558,6.5 0 0 0 0,13 h 273.35131 a 5.400558,6.5 0 0 0 0,-13 z"
     fill="#cccccc"
     id="path7674"
     style="stroke-width:0.911512" />
  <path
     d="m 482.84113,98 a 5.400558,6.5 0 0 0 0,13 h 273.35131 a 5.400558,6.5 0 0 0 0,-13 z"
     fill="#cccccc"
     id="path7676"
     style="stroke-width:0.911512" />
  <path
     style="fill:#ff7f2a;fill-opacity:1;stroke:#ffffff;stroke-width:0.000550963;stroke-linecap:round;stroke-linejoin:round;paint-order:stroke fill markers"
     d="m -206.87078,260.39959 c 0.75731,-0.75734 1.37921,-1.3747 1.38201,-1.37191 0.003,0.003 -0.0283,0.0796 -0.0691,0.17069 -0.15911,0.35541 -0.39685,0.74259 -0.65861,1.07257 -0.17811,0.22454 -0.54309,0.59177 -0.76308,0.76779 -0.19536,0.15631 -0.51349,0.3699 -0.72684,0.48798 -0.14769,0.0817 -0.50425,0.24986 -0.52991,0.24986 -0.006,0 0.60818,-0.61964 1.36549,-1.37698 z"
     id="path8392" />
  <g
     aria-label="sIN OPINIONES"
     id="text1648"
     style="font-size:65.8152px;line-height:1.25;letter-spacing:0px;word-spacing:0px;fill:#e9e9e9;stroke-width:1.64538">
    <path
       d="m 42.274648,189.14149 c 1.184673,-0.26326 1.77701,-0.98723 1.711195,-2.1719 -0.394891,-4.7387 -3.554021,-13.55793 -17.111952,-13.55793 -14.742605,0 -15.927279,11.64929 -15.861464,13.62374 0,15.1375 19.810376,13.88701 21.060865,19.4813 0.394891,1.77701 -1.974456,3.68565 -5.199401,3.68565 -3.093315,0 -5.528477,-1.84282 -5.791738,-5.00195 -0.13163,-1.38212 -0.855597,-1.97446 -2.171901,-1.7112 l -7.437118,1.64538 c -1.184674,0.26326 -1.7770106,0.98723 -1.7111954,2.1719 0.3290764,5.13359 3.2907604,14.21609 17.1119524,14.21609 15.598202,0 17.835919,-11.64929 17.835919,-13.62375 0,-15.1375 -20.797603,-15.00586 -21.719016,-20.13945 -0.263261,-1.51375 1.316304,-3.0275 3.883097,-3.0275 3.093314,0 5.265216,1.7112 5.725922,4.40962 0.197446,1.3163 0.855598,1.90864 2.171902,1.64538 z"
       style="font-family:Cubano;-inkscape-font-specification:Cubano"
       id="path4015" />
    <path
       d="m 58.66254,174.4647 c 1.316304,0 1.974456,0.65815 1.974456,1.97445 v 42.12173 c 0,1.25049 -0.658152,1.97446 -1.974456,1.97446 h -7.239672 c -1.250489,0 -1.974456,-0.72397 -1.974456,-1.97446 v -42.12173 c 0,-1.3163 0.723967,-1.97445 1.974456,-1.97445 z"
       style="font-family:Cubano;-inkscape-font-specification:Cubano"
       id="path4017" />
    <path
       d="m 78.867711,174.4647 c 1.118858,0 1.842825,0.46071 2.303532,1.51375 l 8.950867,21.91646 c 0.263261,0.59234 0.789782,0.46071 0.789782,-0.19745 v -21.25831 c 0,-1.3163 0.723968,-1.97445 1.974456,-1.97445 h 7.371302 c 1.3163,0 1.97446,0.65815 1.97446,1.97445 v 42.12173 c 0,1.25049 -0.65816,1.97446 -1.97446,1.97446 h -9.674834 c -1.118858,0 -1.842825,-0.46071 -2.303532,-1.51375 l -8.950867,-21.91646 c -0.263261,-0.59234 -0.789782,-0.46071 -0.789782,0.19744 v 21.25831 c 0,1.25049 -0.658152,1.97446 -1.974456,1.97446 h -7.371303 c -1.250489,0 -1.974456,-0.72397 -1.974456,-1.97446 v -42.12173 c 0,-1.3163 0.723967,-1.97445 1.974456,-1.97445 z"
       style="font-family:Cubano;-inkscape-font-specification:Cubano"
       id="path4019" />
    <path
       d="m 160.93921,189.27312 c 0,-4.3438 -0.92141,-15.99309 -16.51962,-15.99309 -15.5982,0 -16.51961,11.64929 -16.51961,15.99309 v 16.4538 c 0,4.3438 0.92141,15.99309 16.51961,15.99309 15.59821,0 16.51962,-11.64929 16.51962,-15.99309 z m -11.32022,12.96559 c 0,5.06777 -0.32907,8.16109 -5.1994,8.16109 -4.87032,0 -5.1994,-3.09332 -5.1994,-8.16109 v -9.47739 c 0,-5.06777 0.32908,-8.16108 5.1994,-8.16108 4.87033,0 5.1994,3.09331 5.1994,8.16108 z"
       style="font-family:Cubano;-inkscape-font-specification:Cubano"
       id="path4021" />
    <path
       d="m 168.83697,174.4647 c -1.31631,0.0658 -1.97446,0.72397 -1.97446,2.04027 v 42.05591 c 0,1.25049 0.72397,1.97446 1.97446,1.97446 h 7.3713 c 1.31631,0 1.97446,-0.65815 1.97446,-1.97446 v -10.53043 c 0,-1.3163 0.72396,-1.97445 1.97445,-1.97445 h 3.15913 c 11.71511,0 16.4538,-5.00196 16.4538,-15.79565 0,-10.7937 -4.73869,-15.79565 -16.4538,-15.79565 z m 11.32021,20.27108 c -1.25049,0 -1.97445,-0.72397 -1.97445,-1.97446 v -5.00195 c 0,-1.3163 0.72396,-1.97446 1.97445,-1.97446 h 3.55402 c 3.15913,0 4.7387,0.39489 4.7387,4.47544 0,4.08054 -1.57957,4.47543 -4.7387,4.47543 z"
       style="font-family:Cubano;-inkscape-font-specification:Cubano"
       id="path4023" />
    <path
       d="m 213.06468,174.4647 c 1.3163,0 1.97445,0.65815 1.97445,1.97445 v 42.12173 c 0,1.25049 -0.65815,1.97446 -1.97445,1.97446 h -7.23967 c -1.25049,0 -1.97446,-0.72397 -1.97446,-1.97446 v -42.12173 c 0,-1.3163 0.72397,-1.97445 1.97446,-1.97445 z"
       style="font-family:Cubano;-inkscape-font-specification:Cubano"
       id="path4025" />
    <path
       d="m 233.26984,174.4647 c 1.11886,0 1.84283,0.46071 2.30354,1.51375 l 8.95086,21.91646 c 0.26326,0.59234 0.78979,0.46071 0.78979,-0.19745 v -21.25831 c 0,-1.3163 0.72396,-1.97445 1.97445,-1.97445 h 7.3713 c 1.31631,0 1.97446,0.65815 1.97446,1.97445 v 42.12173 c 0,1.25049 -0.65815,1.97446 -1.97446,1.97446 h -9.67483 c -1.11886,0 -1.84283,-0.46071 -2.30353,-1.51375 l -8.95087,-21.91646 c -0.26326,-0.59234 -0.78978,-0.46071 -0.78978,0.19744 v 21.25831 c 0,1.25049 -0.65815,1.97446 -1.97446,1.97446 h -7.3713 c -1.25049,0 -1.97446,-0.72397 -1.97446,-1.97446 v -42.12173 c 0,-1.3163 0.72397,-1.97445 1.97446,-1.97445 z"
       style="font-family:Cubano;-inkscape-font-specification:Cubano"
       id="path4027" />
    <path
       d="m 272.42988,174.4647 c 1.31631,0 1.97446,0.65815 1.97446,1.97445 v 42.12173 c 0,1.25049 -0.65815,1.97446 -1.97446,1.97446 h -7.23967 c -1.25049,0 -1.97446,-0.72397 -1.97446,-1.97446 v -42.12173 c 0,-1.3163 0.72397,-1.97445 1.97446,-1.97445 z"
       style="font-family:Cubano;-inkscape-font-specification:Cubano"
       id="path4029" />
    <path
       d="m 313.36685,189.27312 c 0,-4.3438 -0.92141,-15.99309 -16.51961,-15.99309 -15.59821,0 -16.51962,11.64929 -16.51962,15.99309 v 16.4538 c 0,4.3438 0.92141,15.99309 16.51962,15.99309 15.5982,0 16.51961,-11.64929 16.51961,-15.99309 z m -11.32021,12.96559 c 0,5.06777 -0.32908,8.16109 -5.1994,8.16109 -4.87033,0 -5.1994,-3.09332 -5.1994,-8.16109 v -9.47739 c 0,-5.06777 0.32907,-8.16108 5.1994,-8.16108 4.87032,0 5.1994,3.09331 5.1994,8.16108 z"
       style="font-family:Cubano;-inkscape-font-specification:Cubano"
       id="path4031" />
    <path
       d="m 330.93942,174.4647 c 1.11885,0 1.84282,0.46071 2.30353,1.51375 l 8.95086,21.91646 c 0.26327,0.59234 0.78979,0.46071 0.78979,-0.19745 v -21.25831 c 0,-1.3163 0.72396,-1.97445 1.97445,-1.97445 h 7.37131 c 1.3163,0 1.97445,0.65815 1.97445,1.97445 v 42.12173 c 0,1.25049 -0.65815,1.97446 -1.97445,1.97446 h -9.67484 c -1.11886,0 -1.84282,-0.46071 -2.30353,-1.51375 l -8.95087,-21.91646 c -0.26326,-0.59234 -0.78978,-0.46071 -0.78978,0.19744 v 21.25831 c 0,1.25049 -0.65815,1.97446 -1.97446,1.97446 h -7.3713 c -1.25049,0 -1.97446,-0.72397 -1.97446,-1.97446 v -42.12173 c 0,-1.3163 0.72397,-1.97445 1.97446,-1.97445 z"
       style="font-family:Cubano;-inkscape-font-specification:Cubano"
       id="path4033" />
    <path
       d="m 390.50218,174.4647 c 1.3163,0 1.97446,0.65815 1.97446,1.97445 v 7.37131 c 0,1.25049 -0.65816,1.97445 -1.97446,1.97445 H 374.5749 c -1.25049,0 -1.97445,0.65816 -1.97445,1.97446 v 2.10609 c 0,1.25048 0.72396,1.97445 1.97445,1.97445 h 10.20136 c 1.3163,0 1.97445,0.65815 1.97445,1.97446 v 7.3713 c 0,1.25049 -0.65815,1.97446 -1.97445,1.97446 H 374.5749 c -1.25049,0 -1.97445,0.65815 -1.97445,1.97445 v 2.10609 c 0,1.25049 0.72396,1.97445 1.97445,1.97445 h 15.92728 c 1.3163,0 1.97446,0.65816 1.97446,1.97446 v 7.3713 c 0,1.31631 -0.65816,1.97446 -1.97446,1.97446 H 362.8598 c -1.25049,0 -1.97446,-0.72397 -1.97446,-1.97446 v -42.12173 c 0,-1.3163 0.72397,-1.97445 1.97446,-1.97445 z"
       style="font-family:Cubano;-inkscape-font-specification:Cubano"
       id="path4035" />
    <path
       d="m 426.70046,189.14149 c 1.18467,-0.26326 1.77701,-0.98723 1.71119,-2.1719 -0.39489,-4.7387 -3.55402,-13.55793 -17.11195,-13.55793 -14.7426,0 -15.92728,11.64929 -15.86146,13.62374 0,15.1375 19.81037,13.88701 21.06086,19.4813 0.39489,1.77701 -1.97445,3.68565 -5.1994,3.68565 -3.09331,0 -5.52847,-1.84282 -5.79174,-5.00195 -0.13163,-1.38212 -0.85559,-1.97446 -2.1719,-1.7112 l -7.43711,1.64538 c -1.18468,0.26326 -1.77701,0.98723 -1.7112,2.1719 0.32908,5.13359 3.29076,14.21609 17.11195,14.21609 15.59821,0 17.83592,-11.64929 17.83592,-13.62375 0,-15.1375 -20.7976,-15.00586 -21.71901,-20.13945 -0.26327,-1.51375 1.3163,-3.0275 3.88309,-3.0275 3.09332,0 5.26522,1.7112 5.72593,4.40962 0.19744,1.3163 0.85559,1.90864 2.1719,1.64538 z"
       style="font-family:Cubano;-inkscape-font-specification:Cubano"
       id="path4037" />
  </g>
</svg>
